<?xml version="1.0" standalone="no"?>
<!DOCTYPE svg PUBLIC "-//W3C//DTD SVG 20010904//EN"
 "http://www.w3.org/TR/2001/REC-SVG-20010904/DTD/svg10.dtd">
<svg version="1.0" xmlns="http://www.w3.org/2000/svg"
 width="1920.000000pt" height="1080.000000pt" viewBox="0 0 1920.000000 1080.000000"
 preserveAspectRatio="xMidYMid meet">

<g transform="translate(0.000000,1080.000000) scale(0.100000,-0.100000)"
fill="#000000" stroke="none">
<path d="M0 8087 l0 -2713 488 -103 c268 -56 499 -107 515 -111 15 -5 128
-101 251 -214 l224 -205 7 -77 c7 -74 9 -79 101 -225 52 -83 94 -159 94 -170
0 -11 -5 -51 -11 -88 -11 -65 -14 -70 -51 -91 -22 -12 -37 -27 -35 -34 2 -6
10 -36 17 -66 l12 -55 -49 -80 c-28 -44 -56 -91 -63 -105 l-13 -25 29 27 29
27 245 8 c196 7 254 6 290 -5 25 -7 279 -83 565 -169 286 -85 625 -186 754
-224 129 -38 235 -70 236 -71 1 -2 18 -43 37 -93 34 -86 38 -92 106 -145 l72
-55 -31 -24 c-37 -28 -59 -76 -59 -125 0 -58 -6 -64 -49 -53 -50 13 -98 0
-123 -34 -15 -20 -20 -43 -20 -100 0 -41 3 -90 7 -109 l8 -35 -20 24 c-14 18
-32 25 -71 29 -39 3 -53 9 -57 23 -4 10 -4 23 0 28 3 5 0 13 -6 17 -9 5 -10
-4 -5 -34 6 -41 -6 -58 -18 -26 -4 9 -9 14 -13 11 -3 -4 0 -14 7 -22 11 -13 9
-19 -8 -38 -25 -27 -42 -69 -42 -106 0 -27 -2 -29 -57 -33 -48 -4 -61 -10 -86
-38 l-30 -33 9 -151 c12 -208 9 -259 -17 -305 -17 -31 -80 -81 -102 -81 -2 0
-17 34 -32 75 -15 42 -29 74 -32 72 -2 -3 7 -37 21 -77 15 -41 25 -74 23 -75
-1 -2 -11 -5 -22 -8 -16 -5 -27 5 -59 59 -21 35 -41 63 -43 60 -3 -3 11 -31
31 -63 20 -32 36 -62 36 -67 0 -5 -16 4 -35 18 -19 15 -35 23 -35 18 0 -5 12
-18 27 -27 l26 -18 -29 -15 c-47 -24 -93 -73 -110 -119 -20 -51 -7 -49 -216
-24 l-148 17 0 -29 0 -29 -147 7 c-117 5 -172 13 -263 37 -63 17 -145 38 -181
48 l-66 17 5 -49 c4 -45 3 -48 -19 -48 -13 -1 -91 -9 -173 -18 -137 -17 -150
-17 -170 -2 -58 44 -158 100 -168 94 -7 -4 -8 -3 -4 4 4 7 -3 17 -18 23 -23
11 -24 13 -9 24 14 11 13 13 -8 19 -22 6 -21 8 15 21 49 17 91 58 83 79 -7 18
-34 20 -89 7 -30 -7 -38 -6 -38 5 0 8 -7 14 -15 14 -14 0 -14 4 0 36 8 20 15
56 15 80 0 37 -3 44 -19 44 -14 0 -28 -18 -50 -65 -17 -36 -31 -70 -31 -75 0
-6 -4 -10 -10 -10 -5 0 -10 6 -10 13 0 7 -7 23 -16 36 -13 18 -18 20 -25 10
-5 -8 -9 -24 -9 -37 l0 -22 -37 20 c-42 22 -54 13 -29 -24 l15 -24 -39 5 c-31
4 -40 2 -40 -9 0 -9 7 -21 15 -28 9 -7 14 -15 12 -17 -2 -2 -123 15 -268 37
-145 22 -315 48 -376 58 -81 12 -113 21 -113 30 0 10 -7 12 -23 8 -12 -3 -55
-6 -94 -6 l-73 0 0 -369 c0 -272 3 -372 12 -377 8 -5 9 -2 5 9 -5 13 -1 17 19
17 21 0 24 -4 19 -20 -4 -11 -2 -20 4 -20 6 0 11 8 11 18 0 13 2 14 9 3 7 -11
11 -10 19 5 10 18 12 17 36 -11 20 -23 28 -27 38 -17 15 15 45 16 53 1 4 -6
-2 -13 -13 -16 -23 -5 -20 -28 4 -37 11 -4 14 -1 10 12 -4 13 1 22 18 31 34
19 62 11 58 -17 -2 -16 1 -20 12 -16 8 3 17 13 20 21 6 14 10 13 30 -6 12 -11
25 -18 29 -15 4 4 9 -1 13 -10 3 -9 14 -16 23 -16 14 0 14 2 1 10 -21 13 0 31
28 24 12 -4 20 -9 18 -13 -3 -4 8 -7 22 -6 22 0 27 -4 26 -23 l-1 -22 22 20
c17 16 24 17 35 7 10 -10 12 -9 7 5 -4 12 -1 18 8 18 8 0 15 -4 15 -9 0 -5 3
-17 7 -27 5 -13 3 -15 -7 -9 -8 5 -11 3 -8 -6 3 -8 10 -14 15 -14 6 0 15 -3
19 -8 14 -14 34 -7 27 10 -5 13 -2 15 11 10 10 -4 26 -7 36 -7 10 0 32 -11 48
-25 36 -30 42 -31 42 -4 0 20 0 20 32 -2 20 -15 43 -22 65 -21 24 2 33 -1 33
-13 0 -9 -4 -13 -10 -10 -5 3 -10 1 -10 -5 0 -6 -5 -8 -11 -4 -7 4 -10 1 -7
-6 7 -21 24 -23 41 -5 11 10 25 13 41 9 19 -4 28 -2 32 10 3 9 11 16 16 16 6
0 8 -6 5 -14 -8 -20 30 -53 44 -39 7 7 26 5 62 -9 57 -22 69 -33 62 -63 -3
-11 -2 -14 1 -7 7 15 34 16 34 1 0 -5 -4 -7 -10 -4 -5 3 -10 2 -10 -4 0 -16
33 -17 64 -2 22 11 31 11 34 3 2 -7 13 -10 28 -6 18 5 24 2 24 -10 0 -9 -8
-16 -20 -16 -23 0 -27 -15 -5 -24 8 -3 15 -12 15 -21 0 -8 9 -15 20 -15 13 0
20 7 20 20 0 12 10 25 25 32 14 6 25 15 25 20 0 4 5 8 11 8 5 0 7 -4 4 -10 -3
-5 -1 -10 5 -10 7 0 9 -7 6 -16 -5 -14 -4 -15 9 -4 12 10 21 8 50 -11 19 -13
35 -32 35 -41 0 -10 7 -18 15 -18 11 0 14 7 9 24 l-6 24 41 -20 c40 -20 83
-79 61 -86 -14 -5 -12 -19 4 -25 8 -3 13 1 12 11 0 9 7 18 18 20 13 3 16 0 11
-9 -5 -8 -4 -10 3 -5 19 12 14 36 -7 36 -11 0 -23 4 -26 10 -10 16 31 12 45
-5 9 -11 17 -12 32 -4 29 16 37 1 10 -20 l-23 -17 41 -10 c22 -6 40 -7 40 -3
0 5 9 9 21 9 12 0 17 -4 13 -11 -4 -8 1 -9 16 -4 16 5 21 4 18 -6 -3 -8 -18
-13 -37 -13 -38 2 -39 -3 -3 -18 36 -14 62 -17 62 -6 0 5 12 8 28 6 21 -2 27
-8 26 -25 0 -13 3 -23 8 -23 5 0 6 -10 3 -23 -7 -21 -6 -21 11 -5 14 14 16 20
6 30 -18 18 -15 28 9 28 26 0 53 -26 45 -45 -3 -8 -1 -17 4 -20 6 -4 10 1 10
9 0 22 17 28 40 16 16 -9 19 -15 10 -24 -18 -22 -2 -45 28 -40 14 3 30 8 35
11 6 4 8 -3 5 -15 -8 -27 15 -48 31 -29 6 8 7 17 3 22 -4 4 3 3 15 -4 21 -11
53 -48 53 -62 0 -4 -10 -5 -22 -3 -21 4 -21 4 -3 -5 14 -6 25 -4 38 8 17 15
20 14 33 -4 19 -26 18 -30 -12 -44 -22 -9 -24 -14 -14 -26 11 -13 14 -13 25 1
7 11 20 15 33 12 15 -4 19 -2 15 8 -3 8 0 14 7 14 6 0 9 3 6 8 -2 4 2 16 9 26
13 18 15 17 45 -4 l32 -23 -29 -24 c-27 -24 -27 -24 -4 -19 29 6 53 -15 40
-35 -15 -23 -11 -59 7 -59 9 0 18 -9 21 -19 3 -11 11 -17 19 -14 10 4 7 14
-12 44 l-25 40 26 -7 c16 -4 25 -2 25 6 0 6 -9 14 -21 17 -14 4 -17 8 -8 13
12 8 66 -6 83 -21 6 -5 3 -16 -8 -28 -14 -16 -15 -19 -2 -24 8 -3 17 -1 19 6
3 8 10 6 19 -7 9 -12 20 -16 27 -11 10 6 11 3 2 -13 -15 -29 -14 -42 4 -36 18
7 20 -12 2 -20 -6 -3 -2 -3 11 0 25 6 26 4 10 -31 -8 -19 -16 -24 -31 -19 -13
4 -17 2 -13 -5 4 -6 14 -11 22 -11 8 0 15 -10 15 -22 1 -18 2 -19 6 -5 2 9 9
15 14 12 5 -3 6 1 3 9 -4 11 0 16 13 16 11 0 25 10 32 23 11 22 11 22 5 -3 -3
-14 -6 -35 -6 -47 0 -16 -5 -20 -17 -16 -12 5 -13 3 -5 -6 9 -10 19 -9 44 4
27 14 34 15 41 3 19 -30 -6 -59 -30 -35 -8 8 -11 8 -11 -1 0 -6 9 -16 19 -22
23 -12 104 -14 97 -2 -2 4 -1 14 4 22 7 12 13 11 33 -8 l24 -22 842 0 c825 0
843 1 864 20 26 25 43 25 56 3 8 -15 10 -14 16 10 5 18 13 26 24 25 9 -2 15 3
13 10 -1 7 3 14 10 16 78 22 105 31 116 39 8 6 12 5 12 -4 0 -11 2 -11 10 1
11 17 30 20 48 7 16 -12 42 9 42 34 0 11 11 24 24 30 31 14 66 -4 66 -34 0
-32 15 -54 23 -33 3 8 2 18 -3 21 -13 8 -13 25 1 25 6 0 18 -7 26 -16 12 -12
18 -12 23 -3 4 6 12 9 17 6 6 -4 19 5 31 18 12 14 17 27 12 30 -34 21 14 44
104 49 33 3 69 8 80 12 16 6 18 3 14 -24 -4 -28 -2 -32 19 -32 22 0 27 8 24
42 -1 9 7 19 18 23 12 4 18 12 14 21 -7 20 26 18 56 -3 14 -9 21 -11 17 -5 -4
7 -3 12 2 12 5 0 12 -9 15 -20 3 -11 1 -20 -5 -20 -5 0 -6 -4 -3 -10 3 -5 13
-10 20 -10 11 0 13 8 8 30 -3 17 -1 30 4 30 9 0 24 11 71 50 9 8 12 5 12 -14
0 -20 4 -24 18 -19 15 6 15 5 3 -10 -17 -21 -31 -22 -31 -2 0 28 -17 15 -24
-17 -8 -42 -1 -46 32 -16 15 14 35 28 44 31 11 4 15 13 11 26 -4 16 -1 19 16
14 12 -3 21 -9 21 -14 0 -5 5 -9 11 -9 6 0 9 6 6 14 -13 32 49 50 73 21 12
-14 15 -14 30 0 12 10 20 13 24 6 5 -7 15 -7 31 1 19 8 31 8 50 0 15 -7 25 -8
25 -2 0 6 7 10 16 10 11 0 14 -6 9 -21 -6 -19 -5 -20 15 -7 54 32 64 36 76 31
7 -3 13 -8 12 -11 -2 -18 3 -22 16 -10 10 9 11 17 4 26 -12 13 -12 13 54 18
40 3 46 1 41 -13 -5 -12 -2 -15 11 -10 12 5 19 0 25 -15 8 -22 8 -22 18 -3 6
11 8 27 6 35 -3 10 0 9 7 -2 13 -21 36 -24 43 -5 4 9 8 9 15 -2 12 -17 32 -6
32 18 0 10 7 18 15 18 8 0 15 -6 15 -14 0 -18 17 -16 28 4 12 20 42 11 42 -13
0 -11 5 -14 16 -10 9 3 23 6 32 6 14 0 13 2 -2 13 -16 12 -16 14 -2 26 19 16
46 8 46 -13 0 -12 4 -13 28 -1 15 7 50 15 77 16 l50 3 -1 -36 c-1 -27 2 -35
12 -31 8 3 14 9 14 15 0 5 -5 6 -10 3 -6 -3 -10 -2 -10 4 0 16 21 24 33 12 16
-16 27 -13 20 5 -5 14 -1 16 30 10 31 -6 35 -4 31 11 -4 15 2 18 37 18 23 0
44 -6 46 -12 3 -7 11 -9 20 -6 11 4 14 2 9 -5 -4 -7 -2 -12 3 -12 6 0 11 7 11
15 0 8 5 15 10 15 6 0 9 -6 8 -12 -2 -7 3 -12 10 -10 6 1 12 -4 12 -11 0 -8 9
-22 20 -32 20 -18 29 -8 9 12 -5 5 -7 22 -4 36 6 22 12 25 51 24 49 0 62 -10
44 -32 -19 -23 -3 -18 19 6 21 23 61 19 61 -7 0 -16 16 -19 24 -5 6 9 43 4 61
-9 24 -16 44 -19 38 -4 -8 21 14 17 38 -7 l22 -22 -6 26 c-5 18 -2 27 9 31 11
4 15 2 11 -8 -4 -10 -1 -13 8 -9 8 3 18 -2 21 -11 9 -22 24 -20 24 4 0 12 7
20 16 20 13 0 14 -3 5 -14 -10 -11 3 -13 80 -10 51 1 95 6 98 11 3 4 15 8 26
8 15 0 20 -7 19 -27 -1 -18 3 -25 12 -21 8 3 14 9 14 13 0 15 51 17 88 5 24
-9 41 -10 49 -3 18 14 56 -28 48 -53 -4 -13 -2 -19 7 -17 7 2 12 -5 12 -14 -1
-10 4 -18 12 -18 8 0 14 9 14 20 0 11 -4 20 -10 20 -13 0 -13 37 0 45 12 8 60
-5 60 -16 0 -5 -7 -9 -15 -9 -8 0 -15 -8 -15 -17 0 -14 4 -13 24 6 21 19 24
20 30 6 8 -23 8 -27 -4 -20 -12 7 -45 -23 -36 -32 12 -12 56 17 56 37 0 11 4
20 8 20 16 0 30 -23 24 -38 -4 -12 -1 -14 12 -9 10 4 20 7 22 7 3 0 2 5 -1 10
-3 6 -2 10 4 10 5 0 13 -5 16 -10 4 -7 12 -7 25 0 28 15 50 12 50 -6 0 -14 1
-14 16 0 18 19 24 19 44 5 13 -9 12 -10 -2 -5 -21 6 -23 -5 -6 -22 9 -9 8 -15
-8 -27 -15 -11 -16 -14 -4 -15 9 0 23 9 33 20 10 12 23 18 29 14 8 -5 9 -1 5
10 -6 14 -3 17 9 12 8 -3 19 -6 22 -6 4 0 0 -5 -8 -10 -12 -8 -11 -10 7 -10
12 0 23 -4 25 -9 2 -4 13 -11 25 -15 18 -6 22 -4 17 8 -5 12 1 16 24 16 22 0
31 -6 35 -21 4 -15 2 -19 -8 -15 -9 3 -12 0 -8 -10 6 -17 39 -19 49 -2 5 7 3
8 -5 3 -9 -5 -12 -2 -9 11 2 14 13 18 48 19 40 0 45 -2 43 -21 -2 -14 4 -24
17 -27 11 -3 18 -1 14 4 -12 20 8 30 27 13 10 -9 27 -14 39 -11 13 3 20 0 20
-9 0 -8 5 -14 11 -14 6 0 9 -7 5 -15 -3 -9 0 -15 9 -15 8 0 15 4 15 9 0 16 36
22 64 11 15 -5 24 -14 21 -20 -9 -14 19 -12 33 2 9 9 12 8 13 -7 0 -11 3 -14
6 -7 2 6 9 12 14 12 4 0 5 -7 2 -17 -4 -9 -2 -14 4 -10 5 3 22 -1 37 -9 35
-18 33 -18 32 9 -1 17 4 21 19 19 11 -2 27 -10 35 -17 8 -8 18 -14 22 -15 18
-2 44 -14 50 -24 5 -8 8 -8 8 0 0 23 33 24 67 3 32 -20 35 -20 52 -5 18 17 49
13 63 -8 4 -6 15 -12 25 -13 84 -8 124 -26 90 -39 -9 -3 -17 -10 -17 -15 0
-18 30 -8 56 17 21 22 28 24 35 13 6 -10 11 -11 17 -3 10 17 85 -14 78 -32 -8
-21 3 -17 27 12 15 17 28 23 40 19 9 -4 17 -11 17 -16 0 -4 8 -5 17 -2 12 5
15 2 10 -9 -5 -15 49 -16 583 -17 469 -1 589 1 593 11 4 10 8 10 16 -2 9 -13
12 -12 24 4 9 12 20 17 31 13 10 -4 16 -1 16 9 0 11 6 13 22 9 17 -6 20 -4 15
9 -5 12 0 16 17 16 14 0 31 3 39 6 8 3 21 -2 30 -10 18 -18 42 -22 32 -5 -4 6
2 13 14 16 23 6 27 18 9 29 -7 5 -8 3 -3 -6 5 -8 3 -11 -6 -8 -21 7 -17 34 4
30 10 -2 24 2 31 8 8 5 21 8 30 4 14 -6 21 5 17 29 0 4 8 7 19 7 12 0 20 -7
20 -17 0 -13 9 -8 33 20 34 38 53 48 44 23 -9 -22 13 -37 29 -21 8 7 14 16 14
20 0 12 29 35 44 35 8 0 24 -9 34 -20 12 -13 25 -18 35 -14 19 7 21 16 7 30
-12 12 56 68 71 58 8 -4 7 -9 -2 -16 -10 -7 -4 -8 18 -4 24 4 35 0 48 -17 l16
-22 -5 23 c-2 13 1 22 8 22 7 0 23 12 37 26 19 21 31 25 56 21 18 -3 35 -1 39
4 4 6 11 6 20 -2 10 -8 14 -8 14 0 0 6 7 11 15 11 9 0 18 12 22 30 4 23 11 30
30 30 16 0 22 -4 17 -12 -5 -8 -2 -9 9 -5 10 3 17 2 17 -3 0 -6 4 -10 10 -10
5 0 9 3 9 8 -3 18 3 20 31 10 19 -6 29 -16 28 -26 -2 -8 3 -17 11 -20 10 -3
12 0 8 11 -3 9 1 18 11 22 9 3 18 1 20 -4 5 -16 19 -13 26 4 8 22 -3 45 -20
38 -16 -6 -18 5 -4 27 8 13 11 12 25 -5 11 -14 13 -15 9 -3 -6 17 27 35 46 23
5 -3 10 -1 10 5 0 7 7 9 15 6 9 -3 18 1 21 9 9 22 45 18 51 -5 4 -17 8 -18 20
-8 11 9 16 9 22 -1 6 -10 10 -9 14 4 5 10 3 14 -4 9 -7 -4 -10 -1 -7 7 3 8 13
14 24 14 10 0 29 6 41 13 15 8 29 9 47 2 14 -5 26 -6 26 -1 0 5 12 9 26 9 15
0 30 6 35 13 6 10 9 11 9 2 0 -7 5 -13 10 -13 6 0 10 6 10 14 0 17 22 14 68
-9 33 -17 59 -12 32 6 -13 8 -13 10 0 19 13 9 36 13 43 8 1 -1 12 4 24 10 17
10 25 9 36 -3 13 -13 17 -13 27 0 7 8 16 12 21 9 5 -3 9 2 9 11 0 9 4 14 9 11
5 -3 11 1 15 9 9 24 28 18 21 -7 l-6 -23 20 23 c22 25 47 21 56 -9 4 -10 10
-19 14 -19 12 0 61 48 61 60 0 17 24 11 43 -11 12 -14 22 -17 30 -11 7 5 27
14 44 20 29 10 34 8 43 -9 13 -24 29 -25 37 -1 10 25 23 31 57 25 24 -5 28 -3
23 10 -9 23 12 21 43 -3 27 -21 65 -26 75 -10 4 6 16 8 27 4 17 -5 19 -3 13
15 -6 19 -2 21 34 21 23 0 42 -1 44 -2 1 -1 12 4 24 11 29 15 69 -5 51 -27 -8
-9 -8 -16 2 -25 10 -10 12 -9 7 5 -5 15 0 16 44 11 35 -4 49 -2 49 6 0 7 -4
10 -10 6 -12 -7 -60 5 -60 15 0 11 54 20 58 10 2 -4 12 -6 22 -3 12 3 20 0 20
-7 0 -9 7 -7 20 5 11 10 23 15 27 12 3 -4 12 -2 19 4 10 8 15 7 20 -4 5 -15
44 -12 44 4 0 5 20 8 44 7 32 -2 46 -7 49 -19 2 -9 14 -18 26 -22 17 -4 21 -1
21 16 0 19 6 22 44 22 24 -1 51 -6 59 -13 12 -10 16 -10 20 0 4 10 9 8 17 -5
11 -16 13 -16 43 9 l32 27 6 -24 c5 -21 7 -22 14 -7 4 10 16 18 27 18 10 0 16
-4 13 -10 -10 -16 7 -12 27 7 10 9 21 13 25 9 4 -4 1 -11 -6 -15 -7 -5 -10
-14 -7 -20 9 -15 37 -14 33 1 -3 16 47 41 52 26 2 -6 -4 -17 -13 -23 -19 -14
-21 -31 -3 -32 6 0 21 -4 32 -7 15 -6 14 -4 -3 7 -22 13 -23 15 -7 30 12 12
28 16 58 12 72 -8 91 -11 115 -19 13 -5 22 -3 22 3 0 6 7 11 15 11 8 0 15 -8
15 -17 0 -12 3 -14 8 -6 9 14 65 10 70 -6 5 -15 23 -14 19 0 -1 7 11 15 26 20
22 6 32 3 45 -12 21 -24 34 -24 50 1 16 26 31 25 42 -2 5 -13 9 -17 9 -10 1 7
6 10 11 7 7 -4 7 -12 0 -25 -8 -15 -7 -17 11 -13 17 5 19 11 13 37 -6 27 -5
29 9 17 9 -7 20 -10 26 -7 5 3 12 -1 15 -10 4 -11 12 -14 24 -9 9 4 30 9 45
11 16 2 33 6 38 9 5 4 9 -1 9 -9 0 -9 6 -13 15 -10 8 3 30 1 50 -6 25 -8 35
-17 35 -33 1 -19 2 -20 13 -6 7 9 18 14 25 12 6 -3 12 0 12 5 0 7 12 7 33 2
38 -11 69 -9 79 5 5 6 8 6 8 -1 0 -6 14 -11 31 -12 17 0 36 -6 43 -12 8 -5 21
-8 30 -4 9 3 16 1 16 -5 0 -6 -5 -11 -11 -11 -14 0 -2 -18 21 -30 16 -8 18 -8
14 5 -3 8 -10 12 -15 9 -5 -3 -9 0 -9 6 0 19 43 29 61 14 9 -8 18 -11 21 -8 4
3 15 1 26 -5 12 -7 22 -7 29 0 6 6 20 -1 41 -22 30 -30 47 -30 20 0 -11 11
-10 13 5 7 10 -3 21 -6 23 -6 2 0 4 -7 4 -15 0 -14 3 -14 30 0 31 16 31 16 41
-15 6 -16 15 -28 20 -25 4 3 6 12 3 20 -4 10 3 13 24 13 24 -1 30 -5 27 -19
-4 -20 11 -27 17 -8 6 18 86 21 112 4 12 -8 38 -17 58 -19 37 -5 78 -25 78
-38 0 -5 7 -8 15 -8 27 0 77 -31 72 -44 -3 -8 6 -12 29 -12 26 0 34 4 34 18 0
13 8 18 26 18 21 0 24 -3 19 -22 -6 -22 -5 -22 9 -5 18 23 51 15 78 -17 9 -12
17 -15 18 -8 0 6 -5 12 -12 12 -9 0 -9 3 0 12 9 9 16 8 30 -5 10 -9 23 -17 29
-17 5 0 18 -9 28 -20 13 -15 22 -17 36 -10 25 14 59 12 59 -3 0 -7 -12 -20
-27 -29 -26 -16 -26 -17 -6 -18 12 0 24 6 27 13 3 8 9 6 20 -7 16 -19 16 -19
16 2 0 26 6 27 27 7 14 -14 18 -14 39 0 13 8 24 12 24 7 0 -5 14 -6 31 -4 22
3 30 1 25 -7 -4 -6 -1 -11 6 -12 32 -2 52 -9 59 -21 5 -7 9 -9 9 -4 0 5 7 3
15 -4 8 -6 26 -13 41 -15 15 -1 33 -10 39 -18 8 -11 15 -13 22 -6 14 14 105
-21 99 -38 -8 -19 11 -16 22 3 8 14 14 15 46 3 20 -7 36 -17 36 -22 0 -5 11
-6 25 -3 29 7 65 -12 65 -34 0 -10 3 -11 8 -4 9 15 38 12 77 -6 37 -18 47 -31
34 -46 -6 -8 -6 -14 -1 -18 6 -3 13 1 16 10 5 13 9 14 21 4 8 -7 12 -16 9 -21
-3 -5 1 -9 9 -9 24 0 26 11 5 32 -11 11 -17 22 -15 25 11 10 77 -21 77 -37 0
-12 2 -12 9 -1 6 9 11 10 15 2 4 -6 12 -9 17 -5 6 3 22 3 35 0 21 -6 24 -9 14
-21 -13 -15 -13 -15 40 -19 8 -1 21 -5 28 -10 7 -4 16 -5 19 -2 4 3 1 6 -6 6
-7 0 -10 4 -6 9 3 6 17 4 33 -5 21 -11 85 -14 313 -14 264 0 290 2 330 20 56
25 80 25 86 0 5 -20 14 -20 399 -20 l394 0 0 520 0 520 -87 0 c-86 0 -88 0
-165 48 -64 39 -76 49 -63 58 20 15 19 24 -2 24 -15 0 -14 2 2 20 9 10 19 41
22 67 l4 48 -25 -30 -26 -30 0 28 c0 29 -17 37 -26 13 -3 -8 -12 -12 -20 -9
-8 3 -14 -1 -15 -8 0 -8 -11 10 -24 39 -31 67 -50 65 -50 -5 1 -37 -3 -49 -12
-46 -7 3 -13 -2 -13 -11 0 -10 -5 -13 -16 -9 -13 5 -15 2 -10 -14 6 -17 3 -20
-19 -15 -30 5 -32 -4 -5 -33 l20 -22 -41 -12 -41 -12 -81 65 c-45 36 -88 72
-96 80 -12 12 -25 7 -96 -40 -46 -30 -86 -54 -90 -54 -3 0 -37 18 -74 40 l-67
40 -501 0 -500 0 0 25 c0 46 -20 58 -91 52 -62 -5 -64 -4 -57 17 4 11 9 35 12
53 8 49 -32 63 -101 37 -22 -9 -20 13 5 39 11 12 33 45 50 73 35 61 38 115 9
162 -24 38 -63 43 -103 12 -14 -11 -27 -20 -29 -20 -3 0 1 28 8 63 8 34 14 95
14 136 0 68 2 76 32 109 79 91 115 237 84 344 l-16 55 50 100 c49 99 57 123
43 123 -5 0 -23 -37 -41 -83 -18 -45 -39 -91 -48 -102 -15 -20 -16 -20 -38 7
-23 25 -23 28 -10 79 8 29 14 63 13 74 0 20 0 19 -9 -1 -5 -12 -11 -42 -15
-67 l-7 -46 -54 41 c-30 22 -54 42 -54 43 0 2 9 24 20 50 12 29 20 69 20 105
0 50 3 60 25 74 13 9 31 16 39 16 8 0 17 4 20 8 7 11 -32 162 -48 187 -11 18
-46 111 -46 124 0 2 11 -6 25 -19 14 -13 25 -20 25 -16 0 4 -27 93 -60 197
-45 145 -67 200 -92 232 -18 22 -41 61 -50 86 l-17 46 22 -30 c34 -45 69 -82
64 -65 -3 8 -34 91 -70 183 -58 151 -63 166 -41 153 21 -15 19 -5 -30 137 -89
253 -72 257 -140 -32 -33 -138 -61 -249 -63 -248 -3 3 18 398 37 722 5 88 10
172 10 188 0 23 5 29 30 34 28 5 30 9 30 49 0 32 4 44 18 48 9 3 114 23 232
46 118 22 314 61 436 85 122 25 227 45 235 45 8 0 93 -41 189 -90 l175 -91
119 23 118 22 62 -33 c112 -60 113 -8 -12 -438 -60 -208 -108 -380 -106 -382
2 -2 21 11 44 29 l40 32 0 -31 c0 -19 -11 -43 -30 -65 -27 -31 -34 -52 -65
-222 -19 -104 -35 -193 -35 -198 0 -5 9 -1 20 9 21 19 21 19 14 -26 -4 -24
-15 -55 -25 -69 -23 -32 -38 -160 -18 -144 8 5 73 53 144 106 l130 96 210 56
c152 40 214 61 225 75 14 18 38 21 265 35 138 9 278 19 313 22 l62 6 0 2109
c0 1391 -4 2108 -10 2104 -6 -3 -10 -1 -10 4 0 6 5 11 10 11 7 0 10 483 10
1430 l0 1430 -9600 0 -9600 0 0 -2713z m18012 2326 c167 -352 -162 -754 -537
-658 -55 14 -161 61 -170 74 -2 4 45 6 103 6 105 0 109 1 192 41 180 88 299
236 338 423 14 67 14 91 4 149 -6 38 -14 77 -18 88 -15 40 60 -64 88 -123z
m-2725 -559 c43 -20 148 -68 233 -106 85 -38 156 -71 158 -73 3 -3 -8 -53 -24
-107 -5 -15 1 -18 36 -18 39 0 42 2 37 23 -21 95 -22 88 4 78 13 -5 76 -32
139 -61 63 -28 129 -57 145 -65 17 -7 68 -31 115 -52 47 -21 125 -57 173 -78
87 -39 88 -40 81 -70 -3 -16 -12 -43 -18 -60 l-13 -30 -15 29 -16 30 -20 -39
-20 -39 -23 72 c-13 42 -26 67 -30 60 -4 -7 -21 -65 -39 -128 -18 -63 -35
-121 -37 -127 -4 -9 6 -13 30 -13 30 0 35 -4 40 -27 3 -16 1 -35 -4 -43 -4 -8
-9 -10 -9 -4 0 5 -6 19 -14 29 -13 18 -15 17 -33 -18 l-19 -38 -23 71 c-12 40
-25 70 -27 67 -10 -9 -62 -211 -58 -219 3 -4 23 -8 44 -8 l39 0 -14 -34 -15
-35 51 3 c35 1 53 -2 56 -11 3 -9 25 -13 64 -13 57 0 59 -1 49 -20 -10 -19 -8
-20 45 -20 30 0 55 -4 55 -10 0 -5 18 -10 40 -10 45 0 46 -3 25 -54 l-15 -36
101 0 102 0 -6 30 c-6 30 -6 30 38 30 25 0 45 -3 45 -8 0 -4 -9 -24 -20 -45
l-20 -37 70 0 71 0 -7 -35 -6 -35 76 0 c74 0 76 1 71 23 -2 12 -18 77 -35 145
-16 68 -30 125 -30 128 0 2 16 4 36 4 34 0 35 -1 29 -30 l-7 -30 75 0 75 0 -8
33 c-4 17 -20 83 -35 145 -15 62 -25 116 -22 119 3 3 61 -20 128 -51 67 -31
124 -54 126 -52 2 2 -28 56 -67 121 -39 65 -69 120 -66 122 3 3 87 -46 186
-108 100 -63 205 -128 234 -145 75 -44 308 -194 328 -212 18 -15 405 -260 551
-349 43 -27 86 -53 95 -58 9 -6 35 -22 57 -36 22 -14 60 -36 85 -50 49 -26 51
-28 96 -64 18 -14 36 -25 40 -25 5 0 25 -14 44 -30 19 -16 40 -30 47 -30 6 0
25 -11 41 -25 17 -14 35 -25 41 -25 13 0 15 -17 2 -25 -5 -3 -16 2 -25 10 -9
9 -17 11 -21 5 -3 -5 -1 -10 6 -10 8 0 8 -4 -1 -16 -11 -12 -10 -18 3 -32 16
-15 17 -15 17 3 0 16 2 17 10 5 5 -8 5 -19 1 -25 -11 -14 -20 -66 -11 -60 7 5
20 -17 20 -34 0 -4 -10 -7 -22 -7 -17 1 -23 -6 -29 -32 -10 -47 -19 -52 -12
-6 l6 39 -21 -19 c-25 -21 -30 -6 -7 18 8 8 15 21 15 28 0 8 -3 9 -8 3 -4 -5
-16 -10 -26 -10 -24 0 -40 -50 -25 -74 8 -12 8 -10 3 9 -6 24 -6 24 12 7 28
-27 2 -37 -48 -20 -28 10 -44 11 -53 3 -9 -7 -16 -6 -24 4 -8 9 -27 13 -62 10
-40 -3 -54 1 -70 17 -20 20 -21 20 -34 2 -7 -10 -11 -21 -9 -25 7 -11 -10 -10
-21 1 -16 14 -146 -4 -199 -27 -58 -26 -76 -27 -76 -7 0 13 -7 15 -35 9 -25
-4 -35 -3 -35 7 0 7 -3 10 -6 6 -4 -3 -22 6 -40 20 -27 20 -32 29 -23 39 7 9
8 14 1 14 -18 0 -21 -29 -5 -46 13 -13 14 -17 3 -24 -9 -5 -11 -20 -7 -44 4
-27 3 -34 -6 -29 -18 12 -66 12 -64 1 1 -6 -4 -13 -11 -15 -7 -3 -11 0 -10 7
4 17 -33 39 -39 23 -3 -7 -9 -13 -14 -13 -6 0 -7 5 -4 10 3 6 3 15 -1 21 -4 8
-9 7 -15 -2 -6 -10 -9 -8 -9 8 0 16 5 22 18 20 32 -4 28 18 -5 28 -24 6 -33
15 -33 30 0 25 -55 71 -65 54 -4 -6 -12 -3 -21 8 -8 11 -13 13 -14 6 0 -7 -9
-13 -21 -13 -15 0 -19 -5 -15 -15 8 -22 -6 -50 -26 -51 -10 -1 -18 2 -18 7 0
5 5 9 11 9 5 0 7 5 4 11 -4 6 -13 8 -21 5 -8 -3 -14 -1 -14 3 0 5 7 11 15 15
18 6 9 36 -11 36 -15 0 -18 -9 -15 -52 1 -22 -3 -28 -20 -28 -12 0 -28 -8 -35
-17 -12 -16 -13 -15 -14 14 0 17 5 35 10 38 13 8 13 45 0 45 -6 0 -10 -6 -9
-12 3 -27 -2 -38 -17 -38 -13 0 -14 -3 -5 -14 9 -11 9 -19 -1 -35 -19 -30 -38
-26 -38 9 0 38 -39 65 -42 28 -2 -30 -4 -40 -12 -60 -5 -10 -1 -27 9 -42 10
-15 14 -33 10 -46 -4 -13 0 -31 9 -45 20 -30 21 -58 2 -32 -15 20 -46 23 -46
4 0 -7 -9 -18 -20 -25 -16 -9 -19 -21 -16 -54 2 -24 1 -31 -1 -15 -4 25 -8 27
-48 27 -47 0 -63 19 -50 60 5 16 2 20 -19 20 -29 0 -34 -14 -10 -28 15 -8 14
-12 -6 -32 -17 -17 -25 -19 -33 -10 -9 9 -8 11 3 8 9 -2 16 6 18 20 3 18 -3
26 -28 35 -28 11 -31 15 -28 51 3 45 34 84 60 78 10 -2 21 3 24 12 8 21 -15
51 -29 37 -9 -9 -16 -6 -53 28 -17 15 -17 15 -42 -27 -5 -7 -25 -14 -45 -15
-28 -3 -37 0 -37 12 -1 14 -2 14 -13 -1 -10 -12 -17 -14 -31 -6 -16 9 -17 7
-11 -13 13 -39 45 -64 45 -34 0 12 5 13 18 7 9 -5 23 -7 30 -5 19 7 14 -15 -5
-25 -30 -16 -86 -25 -79 -14 9 14 -4 42 -19 42 -7 0 -16 7 -19 16 -9 23 -30
11 -37 -22 -4 -16 -10 -37 -14 -46 -5 -13 -2 -18 9 -18 9 0 16 -4 16 -10 0 -5
-6 -10 -12 -10 -18 0 -39 15 -37 26 4 17 -13 44 -27 44 -17 0 -17 -2 -3 -34 9
-20 9 -29 -1 -41 -10 -12 -9 -16 5 -21 10 -4 20 -1 25 6 4 7 13 9 19 6 16 -10
-22 -48 -42 -40 -22 8 -58 -14 -56 -34 1 -9 1 -36 0 -59 l-1 -43 -45 0 -45 0
6 40 c4 27 3 40 -5 40 -6 0 -11 -9 -11 -19 0 -27 -13 -33 -46 -21 -23 9 -33 7
-64 -15 -42 -29 -124 -37 -114 -10 9 23 -10 18 -40 -10 -30 -27 -36 -30 -36
-15 0 6 7 10 16 10 8 0 13 4 9 10 -3 5 -12 7 -20 3 -8 -3 -15 0 -15 6 0 6 -7
11 -15 11 -8 0 -15 -4 -15 -10 0 -5 7 -10 15 -10 8 0 15 -7 15 -15 0 -14 -3
-13 -24 2 l-24 18 20 22 c11 12 18 26 15 30 -3 5 2 17 13 25 12 11 17 24 13
38 -6 21 -6 21 -16 4 -14 -27 -37 -39 -72 -39 -19 0 -29 -5 -27 -12 1 -7 -3
-13 -8 -13 -7 0 -7 -6 0 -19 7 -14 6 -27 -5 -48 -10 -19 -15 -22 -15 -10 0 9
-5 17 -11 17 -6 0 -8 7 -5 16 3 8 2 12 -4 9 -6 -3 -10 0 -10 7 -1 9 -4 8 -13
-3 -7 -9 -18 -14 -25 -11 -8 2 -12 -2 -10 -13 2 -10 -2 -20 -9 -22 -8 -3 -11
7 -8 29 2 18 1 27 -2 21 -2 -7 -11 -13 -18 -13 -7 0 -15 -5 -17 -12 -3 -8 -9
-8 -24 0 -18 11 -18 11 4 12 12 0 31 9 41 19 17 17 20 17 25 4 6 -14 8 -14 25
1 9 9 20 13 24 10 3 -3 11 4 17 16 7 13 7 20 2 16 -6 -3 -12 -1 -14 5 -3 8 -9
6 -20 -4 -14 -15 -18 -14 -44 8 -16 14 -39 25 -51 25 -13 0 -23 5 -23 11 0 5
-5 7 -12 3 -9 -6 -9 -9 0 -12 7 -2 12 -10 12 -18 0 -11 -5 -11 -25 -2 -21 9
-29 9 -41 -4 -18 -18 -64 -12 -64 8 0 13 32 20 68 15 8 -1 12 5 10 14 -1 9 -7
17 -13 17 -5 1 -16 8 -24 16 -13 13 -16 12 -21 -3 -6 -16 -8 -15 -26 7 -31 39
-44 43 -34 9 9 -31 5 -32 -41 -14 -36 15 -89 62 -89 79 0 8 -7 14 -15 14 -8 0
-34 17 -57 39 -24 21 -101 90 -173 152 -71 63 -139 122 -150 132 -11 11 -109
98 -217 194 -109 97 -198 179 -198 184 0 5 19 8 43 7 24 0 52 5 64 12 20 13
65 8 826 -84 54 -7 100 -9 102 -6 2 3 -58 65 -133 136 -75 72 -158 150 -184
175 -45 42 -48 50 -86 185 l-40 141 -200 300 c-243 365 -332 501 -339 519 -8
21 8 17 94 -22z m1213 -549 c34 -18 34 -17 10 -70 l-18 -40 -7 30 c-12 45 -17
50 -30 25 -11 -21 -13 -20 -24 23 -6 25 -11 51 -11 56 0 11 28 3 80 -24z m114
-50 c40 -17 41 -26 11 -84 -12 -24 -13 -23 -34 33 -29 77 -30 73 23 51z m122
-57 c6 -10 -4 -63 -11 -56 -2 2 -11 20 -19 40 -15 35 -15 36 4 31 11 -3 23
-10 26 -15z m94 -43 c0 -1 -7 -8 -15 -15 -13 -10 -15 -9 -15 8 0 15 5 20 15
16 8 -4 15 -7 15 -9z m80 -27 c0 -7 -4 -19 -9 -27 -7 -11 -11 -10 -20 7 -15
28 -14 32 9 32 11 0 20 -6 20 -12z m120 -50 c0 -7 -4 -19 -9 -26 -7 -11 -10
-10 -15 3 -10 26 -7 35 9 35 8 0 15 -6 15 -12z m-650 -50 c-1 -7 -7 -24 -15
-38 l-14 -25 -7 33 c-7 35 -18 41 -28 15 -6 -15 -8 -15 -16 -3 -16 26 -11 30
35 30 30 0 45 -4 45 -12z m140 -12 c0 -9 -41 -96 -46 -96 -5 0 -21 39 -30 75
-6 24 -4 25 35 25 23 0 41 -2 41 -4z m60 -6 c0 -5 7 -10 15 -10 18 0 19 -11 3
-61 l-11 -38 -24 50 c-28 62 -28 69 -3 69 11 0 20 -4 20 -10z m134 -32 c-11
-36 -34 -78 -43 -78 -8 0 -31 66 -31 89 0 6 17 11 41 11 37 0 40 -2 33 -22z
m156 -40 c0 -17 -20 -47 -20 -31 0 6 -3 18 -6 27 -4 11 -1 16 10 16 9 0 16 -6
16 -12z m-110 -70 c0 -18 -2 -20 -9 -8 -6 8 -7 18 -5 22 9 14 14 9 14 -14z
m130 -25 c0 -5 -5 -15 -10 -23 -8 -12 -10 -11 -10 8 0 12 5 22 10 22 6 0 10
-3 10 -7z m2181 -807 c11 6 12 5 2 -8 -7 -8 -11 -17 -8 -19 2 -3 -5 -5 -15 -5
-21 0 -24 5 -14 31 5 12 9 13 14 5 5 -8 13 -9 21 -4z m63 -69 c-3 -9 -10 -14
-15 -11 -5 3 -7 10 -4 15 4 5 2 9 -4 9 -6 0 -8 7 -4 16 5 13 8 14 20 2 7 -8
11 -22 7 -31z m-74 13 c0 -5 -4 -10 -10 -10 -5 0 -10 5 -10 10 0 6 5 10 10 10
6 0 10 -4 10 -10z m-17 -26 c3 -3 3 -13 0 -21 -5 -12 -7 -12 -14 -1 -15 23 -4
40 14 22z m45 -28 c0 -18 5 -43 11 -55 7 -12 8 -21 2 -21 -5 0 -12 6 -14 13
-3 7 -6 4 -6 -6 -1 -10 -5 -16 -10 -13 -5 4 -11 0 -14 -6 -3 -8 -9 -3 -15 12
-8 21 -7 26 10 28 12 2 17 9 14 18 -5 12 11 64 20 64 1 0 2 -15 2 -34z m-1169
-33 c-1 -17 -3 -21 -6 -10 -2 9 -10 17 -16 17 -7 0 -6 4 3 10 20 13 20 13 19
-17z m1242 -26 c-10 -9 -11 -8 -5 6 3 10 9 15 12 12 3 -3 0 -11 -7 -18z m15
-34 c-4 -4 -12 -1 -19 7 -9 10 -9 11 1 6 7 -4 12 -2 13 6 0 11 2 11 6 0 3 -7
2 -16 -1 -19z m-1226 7 c-19 -13 -30 -13 -30 0 0 6 10 10 23 10 18 0 19 -2 7
-10z m-610 -16 c0 -8 -51 -56 -55 -52 -2 2 -1 15 2 31 4 20 11 27 29 27 13 0
24 -3 24 -6z m420 -4 c-20 -13 -33 -13 -25 0 3 6 14 10 23 10 15 0 15 -2 2
-10z m-130 -10 c0 -5 -7 -10 -15 -10 -8 0 -15 5 -15 10 0 6 7 10 15 10 8 0 15
-4 15 -10z m666 -50 c1 -30 -9 -39 -21 -20 -7 12 3 50 13 50 4 0 7 -14 8 -30z
m-1019 -6 c9 -24 -11 -38 -36 -25 -26 14 -27 28 -3 34 30 8 32 7 39 -9z m1198
6 c3 -5 1 -10 -4 -10 -6 0 -11 5 -11 10 0 6 2 10 4 10 3 0 8 -4 11 -10z m95 0
c0 -5 -2 -10 -4 -10 -3 0 -8 5 -11 10 -3 6 -1 10 4 10 6 0 11 -4 11 -10z
m-1440 -10 c0 -5 -5 -10 -11 -10 -5 0 -7 5 -4 10 3 6 8 10 11 10 2 0 4 -4 4
-10z m864 -23 c-21 -12 -30 -1 -14 18 10 13 15 13 21 3 5 -8 2 -16 -7 -21z
m51 13 c3 -5 1 -10 -4 -10 -6 0 -11 5 -11 10 0 6 2 10 4 10 3 0 8 -4 11 -10z
m202 -10 c3 -10 2 -11 -4 -4 -4 7 -17 14 -28 17 -16 5 -15 5 4 4 14 -1 26 -9
28 -17z m-1037 0 c0 -5 -4 -10 -10 -10 -5 0 -10 5 -10 10 0 6 5 10 10 10 6 0
10 -4 10 -10z m-46 -19 c3 -5 -1 -14 -9 -21 -13 -10 -15 -9 -15 9 0 21 14 28
24 12z m890 -26 c-9 -13 -13 -28 -10 -34 3 -5 -3 -7 -14 -4 -11 3 -20 12 -20
20 0 10 6 13 16 9 8 -3 12 -2 9 4 -7 11 16 40 27 33 4 -2 1 -15 -8 -28z m156
25 c0 -5 -2 -10 -4 -10 -3 0 -8 5 -11 10 -3 6 -1 10 4 10 6 0 11 -4 11 -10z
m335 0 c3 -5 1 -10 -4 -10 -6 0 -11 5 -11 10 0 6 2 10 4 10 3 0 8 -4 11 -10z
m-1275 -26 c0 -2 -9 -4 -20 -4 -11 0 -20 4 -20 9 0 5 9 7 20 4 11 -3 20 -7 20
-9z m-130 -84 c0 -11 -5 -20 -11 -20 -6 0 -9 7 -6 14 4 10 1 13 -7 10 -10 -4
-12 2 -8 22 3 19 0 30 -13 36 -13 8 -14 12 -4 18 14 9 49 -47 49 -80z m1023
61 c18 -18 3 -21 -26 -6 -15 8 -29 10 -32 4 -10 -15 -22 -10 -27 9 -5 17 -1
18 34 12 22 -4 45 -13 51 -19z m82 10 c3 -5 1 -12 -5 -16 -5 -3 -10 1 -10 9 0
18 6 21 15 7z m-275 -41 c0 -5 -5 -10 -11 -10 -5 0 -7 5 -4 10 3 6 8 10 11 10
2 0 4 -4 4 -10z m-736 -15 c-4 -8 -11 -15 -16 -15 -6 0 -5 6 2 15 7 8 14 15
16 15 2 0 1 -7 -2 -15z m73 1 c-4 -9 1 -17 11 -19 10 -3 5 -5 -10 -6 -21 -1
-28 -6 -28 -20 0 -11 5 -22 10 -24 6 -3 5 -4 -2 -3 -7 1 -15 13 -17 27 -1 13
-8 28 -15 32 -7 6 -5 7 6 4 9 -3 22 1 28 9 16 18 24 18 17 0z m-1164 -6 c7 0
7 -4 -2 -9 -8 -5 -20 -7 -28 -4 -7 3 -13 -1 -13 -8 0 -11 -2 -11 -10 1 -10 17
7 33 28 25 8 -3 19 -5 25 -5z m897 0 c0 -5 -2 -10 -4 -10 -3 0 -8 5 -11 10 -3
6 -1 10 4 10 6 0 11 -4 11 -10z m-11453 -47 c100 -62 113 -74 102 -95 -6 -11
-107 -67 -226 -126 l-216 -107 67 -10 68 -10 -84 -54 c-46 -30 -141 -93 -212
-140 l-129 -86 -224 -2 c-168 -1 -223 2 -220 10 3 7 -6 13 -22 13 -14 1 -20
-1 -13 -3 6 -3 12 -9 12 -14 0 -6 -4 -7 -10 -4 -5 3 -10 2 -10 -3 0 -5 14 -12
30 -15 17 -4 30 -12 30 -18 0 -8 -4 -8 -13 -1 -17 14 -57 4 -57 -14 0 -8 2
-14 4 -14 2 0 12 -3 22 -7 13 -5 16 -3 11 10 -5 15 -1 16 29 13 44 -6 50 -11
35 -30 -7 -9 -24 -13 -42 -11 -26 4 -29 2 -23 -20 5 -20 2 -24 -23 -28 -15 -2
-7 -4 20 -3 26 0 47 4 47 8 0 4 -3 7 -7 5 -5 -1 -8 3 -8 8 0 6 6 10 12 10 7 0
20 11 29 23 20 30 34 18 36 -31 1 -30 4 -35 15 -26 7 6 13 18 13 25 0 20 12
17 56 -14 21 -15 51 -33 67 -39 15 -7 27 -17 27 -23 0 -6 4 -9 9 -6 5 3 14 0
20 -8 9 -11 -10 -28 -94 -86 -58 -40 -110 -80 -114 -89 -5 -9 -18 -57 -31
-108 -23 -96 -27 -100 -85 -109 -11 -2 -46 -10 -79 -19 -32 -9 -65 -14 -73
-11 -8 3 -12 2 -9 -2 3 -5 -51 -22 -120 -37 -68 -16 -123 -33 -121 -38 3 -11
15 -16 225 -88 83 -29 152 -57 152 -62 0 -4 -14 -52 -31 -105 -29 -92 -35
-100 -97 -160 -36 -34 -72 -61 -81 -60 -9 2 -15 -3 -13 -10 3 -14 -45 -57 -63
-57 -5 0 -25 -10 -44 -22 -19 -12 -37 -20 -40 -16 -3 3 0 8 7 10 14 5 16 23 3
23 -5 0 -13 -9 -16 -21 -6 -18 -8 -19 -18 -5 -7 9 -27 19 -44 22 -32 6 -33 5
-33 -25 0 -17 -5 -31 -10 -31 -6 0 -8 11 -4 26 5 18 3 25 -4 20 -6 -3 -13 3
-17 14 -5 15 -15 20 -41 20 -19 0 -34 -5 -34 -11 0 -5 -4 -7 -10 -4 -6 4 -5
13 2 25 7 10 16 16 21 13 5 -3 21 -6 37 -7 24 -2 27 1 18 11 -6 8 -18 11 -26
8 -8 -3 -26 4 -39 17 -18 17 -26 19 -36 9 -9 -10 -9 -11 4 -6 10 4 20 2 24 -4
9 -16 -27 -13 -49 4 -11 8 -16 15 -12 15 4 0 4 5 0 11 -4 8 -9 8 -17 0 -20
-20 -40 -13 -35 12 4 20 1 23 -19 19 -27 -5 -33 -46 -8 -56 9 -3 15 -11 14
-18 -3 -28 2 -38 21 -38 11 0 20 7 20 15 0 8 5 15 10 15 6 0 10 -8 8 -17 -2
-10 7 -22 21 -29 27 -14 40 -50 14 -40 -8 3 -19 6 -25 6 -6 0 -7 7 -4 16 5 14
1 16 -25 10 -17 -3 -38 -6 -46 -6 -8 0 -11 -5 -8 -10 4 -6 10 -8 14 -5 5 2 11
-9 15 -26 3 -17 10 -28 14 -25 5 3 14 -6 20 -19 7 -15 8 -25 2 -25 -6 0 -10 7
-10 15 0 18 -26 20 -34 3 -3 -7 -3 -3 -1 8 6 22 -12 36 -37 30 -7 -1 -10 -1
-5 1 14 9 7 32 -8 27 -8 -4 -15 -1 -15 5 0 6 5 11 10 11 6 0 10 5 10 10 0 6
-9 10 -19 10 -14 0 -18 -6 -15 -22 2 -13 1 -16 -2 -8 -4 8 -12 18 -18 22 -6 4
-4 9 7 14 17 6 17 7 0 20 -17 13 -17 13 0 14 27 0 20 19 -10 26 -16 4 -41 18
-57 31 -16 13 -42 27 -58 30 -20 4 -26 9 -19 17 7 9 3 12 -14 11 -13 0 -27 -3
-31 -7 -4 -5 -36 -8 -71 -8 -62 0 -64 1 -58 23 5 20 5 20 -10 -3 -15 -25 -15
-24 -9 15 5 37 26 135 41 195 3 14 6 27 5 30 0 3 14 7 31 8 18 1 43 6 57 11
14 5 44 14 66 20 39 10 94 53 94 73 0 5 -7 11 -15 14 -8 4 -15 12 -15 20 0 19
-20 18 -34 -2 -11 -14 -13 -14 -25 0 -9 11 -10 16 -2 16 6 0 11 7 11 15 0 10
10 15 30 15 17 0 30 5 30 10 0 6 -9 10 -20 10 -11 0 -20 4 -20 9 0 5 -13 11
-29 14 -25 5 -28 10 -24 29 4 13 10 26 15 29 10 7 0 39 -13 39 -5 0 -8 -3 -7
-7 5 -17 -24 -53 -42 -53 -26 0 -26 31 1 130 16 57 25 77 35 73 8 -3 14 0 14
6 0 6 -6 10 -12 9 -16 -4 -12 58 7 116 7 23 16 61 19 86 2 25 12 74 20 110 9
36 16 70 16 76 0 7 -37 13 -98 17 -118 7 -146 15 -129 38 7 8 20 18 30 22 26
10 21 28 -7 21 -26 -6 -44 12 -28 28 7 7 21 6 45 -3 30 -10 37 -10 51 3 21 21
58 118 46 118 -6 0 -10 -7 -10 -15 0 -8 -9 -15 -20 -15 -11 0 -20 5 -20 10 0
20 -24 37 -45 32 -16 -4 -18 -3 -9 9 13 16 15 49 2 49 -4 0 -3 8 3 19 10 14 9
23 -4 42 l-17 23 0 -27 c0 -15 -4 -27 -10 -27 -5 0 -10 5 -10 11 0 8 -6 7 -17
-2 -13 -11 -17 -11 -20 -1 -3 6 -12 12 -21 12 -12 0 -13 3 -4 12 8 8 15 8 24
0 11 -8 17 -6 26 9 9 13 23 19 51 19 24 0 46 7 56 17 11 10 19 12 23 6 4 -5
20 -12 35 -15 21 -4 30 0 39 16 10 19 10 20 -5 7 -11 -8 -17 -9 -17 -2 0 13
42 25 93 25 20 0 37 4 37 9 0 5 9 7 20 4 10 -3 20 -1 22 4 2 6 37 12 78 16 41
3 83 10 94 15 14 8 17 7 11 -3 -6 -9 -3 -11 9 -6 9 4 15 3 12 -2 -17 -28 77
-44 152 -27 19 5 23 4 13 -3 -12 -8 -12 -11 0 -23 37 -37 82 -21 59 21 -9 18
-8 21 12 22 13 1 25 1 28 1 3 0 46 8 95 19 50 11 99 21 110 23 11 3 20 5 20 6
0 2 11 4 25 6 14 1 39 5 56 7 17 2 36 7 43 11 6 4 21 6 34 5 12 -2 31 2 43 8
11 7 43 12 71 11 28 0 60 5 71 11 12 6 59 14 105 17 l84 5 39 -35 c21 -19 50
-38 64 -41 44 -10 150 10 150 27 0 6 7 8 15 5 8 -4 17 -1 21 4 3 6 18 9 32 6
15 -3 38 0 52 7 14 7 40 13 59 15 19 1 40 6 46 11 7 5 14 8 16 6 2 -2 29 2 59
9 76 18 69 19 137 -22z m10683 15 c0 -13 -23 -5 -28 10 -2 7 2 10 12 6 9 -3
16 -11 16 -16z m215 2 c3 -5 -1 -10 -10 -10 -9 0 -13 5 -10 10 3 6 8 10 10 10
2 0 7 -4 10 -10z m871 -17 c-10 -10 -19 5 -10 18 6 11 8 11 12 0 2 -7 1 -15
-2 -18z m-338 6 c-2 -6 -8 -10 -13 -10 -5 0 -11 4 -13 10 -2 6 4 11 13 11 9 0
15 -5 13 -11z m1071 -5 c2 -2 -17 -4 -42 -4 -26 0 -47 4 -47 9 0 8 79 3 89 -5z
m-844 -14 c3 -5 2 -10 -4 -10 -5 0 -13 5 -16 10 -3 6 -2 10 4 10 5 0 13 -4 16
-10z m-1135 -10 c0 -5 -2 -10 -4 -10 -3 0 -8 5 -11 10 -3 6 -1 10 4 10 6 0 11
-4 11 -10z m94 -12 c-5 -8 -2 -9 9 -5 9 3 16 3 16 -1 -3 -19 2 -23 16 -12 23
19 26 8 4 -19 -10 -13 -19 -18 -19 -12 0 6 -7 8 -15 5 -11 -5 -13 -2 -9 10 4
12 0 16 -15 16 -12 0 -21 5 -21 11 0 5 5 7 10 4 6 -3 10 -1 10 4 0 6 5 11 11
11 5 0 7 -5 3 -12z m641 2 c3 -5 -1 -10 -10 -10 -9 0 -13 5 -10 10 3 6 8 10
10 10 2 0 7 -4 10 -10z m-381 -16 c9 -22 8 -26 -6 -22 -13 5 -20 38 -8 38 4 0
11 -7 14 -16z m975 2 c-12 -10 -59 -15 -59 -6 0 5 14 10 32 10 17 0 29 -2 27
-4z m54 -3 c-7 -2 -19 -2 -25 0 -7 3 -2 5 12 5 14 0 19 -2 13 -5z m531 -8 c-7
-18 12 -45 32 -45 20 0 17 20 -3 36 -20 14 -12 29 12 21 8 -4 15 -16 15 -27 0
-11 4 -20 9 -20 5 0 11 -8 14 -19 3 -14 0 -17 -14 -14 -11 3 -19 0 -19 -6 0
-7 5 -9 10 -6 6 3 10 -2 10 -13 0 -14 -6 -19 -22 -17 -13 1 -31 3 -41 4 -10 0
-16 5 -12 11 3 5 12 7 20 3 9 -3 15 1 15 8 0 22 -17 42 -29 35 -7 -5 -11 5
-11 28 0 20 4 36 10 36 5 0 7 -7 4 -15z m-737 -32 c-3 -10 -5 -4 -5 12 0 17 2
24 5 18 2 -7 2 -21 0 -30z m858 8 c7 -12 -12 -24 -25 -16 -11 7 -4 25 10 25 5
0 11 -4 15 -9z m-1719 -13 c4 -7 3 -8 -4 -4 -7 4 -12 1 -12 -8 0 -9 -4 -16 -8
-16 -4 0 -8 9 -8 20 0 22 20 27 32 8z m1574 -12 c0 -14 -5 -28 -10 -31 -6 -4
-8 -10 -5 -15 6 -10 -4 -40 -14 -40 -9 0 -7 82 3 98 12 20 26 14 26 -12z
m-917 7 c-7 -2 -21 -2 -30 0 -10 3 -4 5 12 5 17 0 24 -2 18 -5z m147 -8 c0 -8
-4 -15 -10 -15 -5 0 -10 7 -10 15 0 8 5 15 10 15 6 0 10 -7 10 -15z m40 0 c0
-8 -4 -15 -10 -15 -5 0 -10 7 -10 15 0 8 5 15 10 15 6 0 10 -7 10 -15z m-725
-5 c3 -5 1 -10 -4 -10 -6 0 -11 5 -11 10 0 6 2 10 4 10 3 0 8 -4 11 -10z
m-115 -15 c-7 -8 -17 -15 -23 -15 -6 0 -2 7 9 15 25 19 30 19 14 0z m-12340
-31 c0 -8 -4 -12 -10 -9 -5 3 -10 10 -10 16 0 5 5 9 10 9 6 0 10 -7 10 -16z
m14070 -16 c0 -19 -2 -20 -10 -8 -13 19 -13 30 0 30 6 0 10 -10 10 -22z
m-1800 -12 c0 -9 -30 -14 -35 -6 -4 6 3 10 14 10 12 0 21 -2 21 -4z m1660 0
c0 -2 -7 -7 -16 -10 -8 -3 -12 -2 -9 4 6 10 25 14 25 6z m-1717 -13 c-7 -2
-19 -2 -25 0 -7 3 -2 5 12 5 14 0 19 -2 13 -5z m1787 -3 c0 -9 -32 -30 -46
-30 -4 0 1 9 11 20 19 21 35 26 35 10z m-1294 -44 c2 -20 -1 -22 -11 -13 -9 8
-10 16 -3 25 13 16 13 16 14 -12z m-13555 -4 c-7 -2 -18 1 -23 6 -8 8 -4 9 13
5 13 -4 18 -8 10 -11z m13019 8 c0 -5 -4 -10 -9 -10 -6 0 -13 5 -16 10 -3 6 1
10 9 10 9 0 16 -4 16 -10z m1705 0 c-3 -5 -10 -10 -16 -10 -5 0 -9 5 -9 10 0
6 7 10 16 10 8 0 12 -4 9 -10z m-1232 -15 c-3 -9 -8 -14 -10 -11 -3 3 -2 9 2
15 9 16 15 13 8 -4z m-13446 -40 c2 -14 -1 -25 -6 -25 -6 0 -8 7 -5 15 4 10 0
15 -15 15 -25 0 -28 17 -3 22 22 5 25 2 29 -27z m39 19 c-3 -9 -6 -21 -6 -27
0 -8 -3 -8 -10 -1 -12 12 -3 44 12 44 6 0 7 -7 4 -16z m12994 -4 c0 -11 -4
-20 -9 -20 -5 0 -7 9 -4 20 3 11 7 20 9 20 2 0 4 -9 4 -20z m-12970 -10 c0 -5
-2 -10 -4 -10 -3 0 -8 5 -11 10 -3 6 -1 10 4 10 6 0 11 -4 11 -10z m13070 6
c0 -3 -4 -8 -10 -11 -5 -3 -10 -1 -10 4 0 6 5 11 10 11 6 0 10 -2 10 -4z
m-13684 -63 c-11 -11 -19 6 -11 24 8 17 8 17 12 0 3 -10 2 -21 -1 -24z m102
25 c18 -18 15 -36 -8 -43 -16 -5 -18 -10 -10 -25 13 -25 13 -33 -2 -27 -7 2
-25 -9 -40 -25 -19 -22 -32 -28 -46 -24 -22 7 -39 -8 -22 -19 21 -13 8 -22
-34 -22 -33 0 -43 4 -39 14 3 7 14 13 25 13 10 0 16 5 13 10 -3 6 3 10 14 10
25 0 26 9 7 55 -14 33 -14 35 5 35 16 0 19 -4 14 -21 -6 -18 -4 -20 13 -15 11
4 23 2 27 -4 3 -5 13 -10 21 -10 8 0 12 5 9 10 -3 6 -1 10 4 10 6 0 11 9 11
20 0 11 -6 20 -12 20 -9 0 -9 3 -2 8 6 4 13 15 17 25 7 20 18 22 35 5z m504
-10 c-7 -7 -12 -8 -12 -2 0 14 12 26 19 19 2 -3 -1 -11 -7 -17z m-119 -13 c1
-5 -10 -11 -25 -13 -16 -2 -28 1 -28 7 0 20 49 26 53 6z m57 -9 c0 -8 9 -17
20 -21 15 -5 19 -14 18 -42 -1 -19 -7 -37 -14 -40 -18 -7 -54 15 -54 33 0 11
-6 14 -16 10 -10 -4 -14 -1 -12 6 3 7 14 14 26 16 16 3 20 -1 16 -12 -3 -9 1
-22 9 -30 13 -14 15 -12 19 14 3 17 1 30 -3 30 -11 0 -39 30 -39 41 0 5 7 9
15 9 8 0 15 -6 15 -14z m86 -23 c-1 -11 8 -19 25 -23 25 -5 25 -6 8 -23 -17
-18 -18 -18 -33 12 -18 34 -20 51 -7 51 5 0 8 -8 7 -17z m-169 -34 c-3 -11 -1
-17 4 -13 5 3 9 0 9 -5 0 -6 7 -11 15 -11 8 0 15 -7 15 -15 0 -8 9 -15 20 -15
22 0 27 -16 8 -23 -9 -3 -8 -9 6 -19 16 -13 15 -14 -18 -10 -35 4 -49 25 -23
36 8 3 5 11 -11 25 l-24 21 -17 -22 c-18 -21 -18 -20 -17 29 1 43 3 49 19 45
12 -3 17 -11 14 -23z m14903 17 c0 -3 -4 -8 -10 -11 -5 -3 -10 -1 -10 4 0 6 5
11 10 11 6 0 10 -2 10 -4z m50 -6 c0 -5 -2 -10 -4 -10 -3 0 -8 5 -11 10 -3 6
-1 10 4 10 6 0 11 -4 11 -10z m-15470 -15 c0 -8 -4 -15 -10 -15 -5 0 -10 7
-10 15 0 8 5 15 10 15 6 0 10 -7 10 -15z m15483 -19 c6 -16 -2 -28 -14 -20
-12 7 -11 34 0 34 5 0 11 -6 14 -14z m-15533 -7 c0 -5 5 -7 10 -4 6 3 10 1 10
-5 0 -7 -6 -10 -14 -7 -7 3 -18 1 -24 -5 -13 -13 -32 -2 -32 18 0 8 10 14 25
14 14 0 25 -5 25 -11z m-71 -22 c-2 -1 -12 -9 -21 -16 -15 -12 -18 -11 -18 3
0 10 8 16 22 16 12 0 19 -1 17 -3z m329 -15 c3 -11 -23 -17 -55 -13 -7 1 -13
-5 -13 -14 0 -8 -4 -15 -10 -15 -13 0 -32 38 -25 50 8 13 98 6 103 -8z m-288
-14 c8 -3 0 -7 -17 -10 -24 -3 -33 -1 -33 9 0 8 5 11 10 8 6 -3 10 0 10 7 0 9
3 9 8 2 4 -6 14 -13 22 -16z m15510 -28 c0 -5 -2 -10 -4 -10 -3 0 -8 5 -11 10
-3 6 -1 10 4 10 6 0 11 -4 11 -10z m-14900 -30 c-8 -5 -19 -10 -25 -10 -5 0
-3 5 5 10 8 5 20 10 25 10 6 0 3 -5 -5 -10z m12890 -280 c0 -5 -4 -10 -10 -10
-5 0 -10 5 -10 10 0 6 5 10 10 10 6 0 10 -4 10 -10z m-210 -34 c0 -2 -7 -7
-16 -10 -8 -3 -12 -2 -9 4 6 10 25 14 25 6z m140 -6 c0 -5 -4 -10 -10 -10 -5
0 -10 5 -10 10 0 6 5 10 10 10 6 0 10 -4 10 -10z m-197 -31 c-6 -6 -9 -19 -5
-28 5 -14 4 -14 -12 -2 -17 14 -17 15 0 28 22 16 32 17 17 2z m167 2 c0 -12
-28 -22 -34 -12 -3 5 -3 11 1 15 9 9 33 7 33 -3z m-113 -16 c0 -8 -9 -15 -19
-15 -10 0 -18 7 -18 15 0 8 8 15 18 15 10 0 19 -7 19 -15z m190 -41 c1 -31 -2
-41 -13 -40 -20 3 -42 26 -25 26 9 0 11 9 6 29 -5 25 -3 30 12 28 14 -1 18
-10 20 -43z m157 31 c-4 -10 0 -15 11 -15 9 0 13 -4 10 -10 -10 -17 -35 -11
-35 8 0 10 3 22 7 25 10 11 13 8 7 -8z m-215 -31 c-15 -18 -22 -13 -13 10 3 9
10 13 16 10 5 -3 4 -12 -3 -20z m-149 -13 c0 -12 -20 -25 -27 -18 -7 7 6 27
18 27 5 0 9 -4 9 -9z m-14233 -33 c-3 -8 -6 -5 -6 6 -1 11 2 17 5 13 3 -3 4
-12 1 -19z m14273 10 c0 -9 4 -8 10 2 5 8 10 11 10 5 0 -5 -4 -16 -9 -24 -12
-18 -42 -6 -35 14 7 18 24 20 24 3z m255 -6 c7 -19 -3 -32 -23 -31 -14 0 -13
2 3 9 19 8 19 9 -2 9 -13 1 -24 -7 -28 -20 -7 -21 -26 -22 -33 -1 -2 8 3 10
14 5 12 -4 15 -3 10 6 -4 6 -3 18 4 26 14 17 48 15 55 -3z m-14451 -28 c23 -9
20 -24 -4 -24 -11 0 -20 7 -20 15 0 17 2 18 24 9z m14284 -19 c-3 -3 -9 2 -12
12 -6 14 -5 15 5 6 7 -7 10 -15 7 -18z m-67 -18 c-10 -9 -11 -8 -5 6 3 10 9
15 12 12 3 -3 0 -11 -7 -18z m304 -8 c-4 -5 -1 -9 4 -9 6 0 11 -5 11 -11 0 -8
-5 -8 -15 1 -17 14 -21 45 -5 35 6 -4 8 -11 5 -16z m-14550 -48 c-10 -9 -25
14 -24 37 l1 27 13 -30 c7 -16 12 -32 10 -34z m109 43 c5 -14 4 -15 -9 -4 -17
14 -19 20 -6 20 5 0 12 -7 15 -16z m36 6 c0 -5 -2 -10 -4 -10 -3 0 -8 5 -11
10 -3 6 -1 10 4 10 6 0 11 -4 11 -10z m14280 6 c0 -11 -19 -15 -25 -6 -3 5 1
10 9 10 9 0 16 -2 16 -4z m-102 -15 c10 -6 9 -11 -4 -22 -16 -12 -17 -12 -11
3 4 11 0 18 -11 21 -13 4 -13 5 -2 6 8 0 21 -3 28 -8z m68 -27 c-5 -19 -2 -24
13 -24 19 0 38 -17 29 -25 -2 -3 -17 -1 -34 4 -25 7 -29 12 -26 36 3 25 1 27
-12 16 -19 -16 -21 -6 -4 13 19 20 41 7 34 -20z m-106 0 c0 -8 -5 -12 -10 -9
-6 4 -8 11 -5 16 9 14 15 11 15 -7z m-10 -28 c0 -3 -4 -8 -10 -11 -5 -3 -10
-1 -10 4 0 6 5 11 10 11 6 0 10 -2 10 -4z m47 -18 c-3 -8 -6 -5 -6 6 -1 11 2
17 5 13 3 -3 4 -12 1 -19z m134 -11 c-10 -9 -11 -8 -5 6 3 10 9 15 12 12 3 -3
0 -11 -7 -18z m-14661 9 c0 -2 -7 -7 -16 -10 -8 -3 -12 -2 -9 4 6 10 25 14 25
6z m14640 -25 c0 -10 -37 -30 -44 -24 -14 14 -4 28 19 29 14 1 25 -1 25 -5z
m40 -21 c0 -5 -4 -10 -10 -10 -5 0 -10 5 -10 10 0 6 5 10 10 10 6 0 10 -4 10
-10z m-12660 -70 c0 -15 -18 -12 -40 7 -30 26 -24 36 10 18 17 -9 30 -20 30
-25z m12620 5 c0 -8 -10 -19 -21 -26 -22 -11 -21 -3 4 29 12 16 17 15 17 -3z
m0 -45 c-8 -5 -17 -7 -19 -4 -3 3 1 9 9 14 8 5 17 7 19 4 3 -3 -1 -9 -9 -14z
m-12630 -1 c0 6 5 11 10 11 18 0 11 -18 -10 -25 -23 -7 -43 2 -34 16 4 6 11 6
20 -2 10 -8 14 -8 14 0z m-2866 -5 c9 -3 16 -12 16 -20 0 -20 -13 -17 -28 6
-13 22 -12 23 12 14z m96 -53 c0 -5 3 -18 6 -28 6 -15 3 -14 -15 4 -25 26 -26
33 -6 33 8 0 15 -4 15 -9z m2870 -1 c0 -5 -4 -10 -10 -10 -5 0 -10 5 -10 10 0
6 5 10 10 10 6 0 10 -4 10 -10z m-2335 -30 c3 -6 -1 -7 -9 -4 -18 7 -21 14 -7
14 6 0 13 -4 16 -10z m89 -5 c-4 -8 -10 -15 -15 -15 -4 0 -6 7 -3 15 4 8 10
15 15 15 4 0 6 -7 3 -15z m-654 -25 c0 -5 -4 -10 -10 -10 -5 0 -10 5 -10 10 0
6 5 10 10 10 6 0 10 -4 10 -10z m-40 -29 c0 -5 -7 -12 -16 -15 -14 -5 -15 -4
-4 9 14 17 20 19 20 6z m-50 -71 c0 -5 -4 -10 -10 -10 -5 0 -10 5 -10 10 0 6
5 10 10 10 6 0 10 -4 10 -10z m47 4 c-3 -3 -12 -4 -19 -1 -8 3 -5 6 6 6 11 1
17 -2 13 -5z m28 -24 c3 -5 -3 -10 -14 -10 -12 0 -21 5 -21 10 0 6 6 10 14 10
8 0 18 -4 21 -10z m-130 -60 c3 -5 2 -10 -4 -10 -5 0 -13 5 -16 10 -3 6 -2 10
4 10 5 0 13 -4 16 -10z m3260 -200 c3 -5 -1 -10 -9 -10 -9 0 -16 5 -16 10 0 6
4 10 9 10 6 0 13 -4 16 -10z m365 -75 c0 -9 -44 -45 -54 -45 -6 1 3 12 19 25
31 26 35 28 35 20z m-140 -15 c0 -5 -7 -10 -15 -10 -8 0 -15 5 -15 10 0 6 7
10 15 10 8 0 15 -4 15 -10z m-403 -22 c-3 -8 -6 -5 -6 6 -1 11 2 17 5 13 3 -3
4 -12 1 -19z m324 -17 c7 -14 14 -27 15 -29 2 -5 64 30 64 37 0 13 56 7 69 -6
7 -8 8 -13 2 -13 -6 0 -15 -10 -22 -21 -8 -15 -8 -19 0 -15 7 4 11 -1 11 -13
0 -22 -14 -28 -25 -11 -12 19 -25 -1 -25 -39 0 -26 -8 -47 -25 -67 -25 -29
-33 -50 -16 -40 5 3 12 -1 15 -10 3 -8 10 -12 16 -9 6 4 7 -1 3 -11 -6 -15 -7
-15 -17 -1 -8 10 -26 14 -59 13 -31 -1 -43 2 -37 8 15 15 12 24 -6 22 -9 0
-19 6 -22 14 -5 13 -3 13 11 1 14 -11 17 -11 18 0 0 10 2 11 6 2 7 -18 60 -16
66 1 8 19 -1 26 -35 26 -19 0 -28 5 -28 16 0 11 6 13 19 9 24 -7 35 8 26 36
-5 14 -13 19 -26 16 -10 -3 -19 -1 -19 4 0 5 5 9 11 9 5 0 7 5 4 10 -11 18
-27 -1 -22 -26 2 -12 0 -29 -4 -36 -7 -11 -9 -11 -9 1 0 7 -6 11 -14 8 -11 -4
-13 2 -11 25 4 28 2 29 -20 24 -30 -8 -33 9 -5 24 14 7 20 7 20 0 0 -15 36
-12 50 5 7 8 10 22 6 30 -7 18 -43 20 -49 3 -2 -7 -7 -10 -11 -7 -15 14 7 38
34 37 20 -1 32 -9 41 -27z m-351 -31 c0 -5 -5 -10 -11 -10 -5 0 -7 5 -4 10 3
6 8 10 11 10 2 0 4 -4 4 -10z m102 -44 c-2 -9 2 -16 7 -16 5 0 12 10 14 23 4
19 4 19 5 2 1 -11 -3 -27 -8 -35 -9 -13 -11 -13 -21 0 -8 11 -12 12 -16 2 -7
-17 -23 -5 -17 13 4 8 11 12 17 8 7 -4 8 0 4 11 -5 12 -3 16 5 13 7 -2 12 -11
10 -21z m143 -61 c-1 -34 -15 -63 -15 -32 0 10 -7 17 -15 17 -8 0 -15 7 -15
15 0 18 26 20 34 3 3 -7 3 -3 0 10 -3 12 -1 22 4 22 5 0 8 -16 7 -35z m219
-22 c-4 -16 -11 -37 -15 -48 -7 -18 -8 -18 -8 5 -1 35 10 70 20 70 5 0 6 -12
3 -27z m-194 -37 c0 -8 -4 -18 -10 -21 -5 -3 -10 3 -10 14 0 12 5 21 10 21 6
0 10 -6 10 -14z m-40 -20 c0 -27 -15 -43 -24 -27 -4 5 -2 12 3 16 6 3 8 12 4
20 -3 8 0 15 6 15 6 0 11 -11 11 -24z m-98 -22 c-9 -16 -10 -14 -9 8 1 15 6
23 11 18 4 -4 4 -16 -2 -26z m168 -4 c0 -5 -5 -10 -11 -10 -5 0 -7 5 -4 10 3
6 8 10 11 10 2 0 4 -4 4 -10z m111 -103 c-10 -9 -11 -8 -5 6 3 10 9 15 12 12
3 -3 0 -11 -7 -18z m-21 -81 c0 -3 -4 -8 -10 -11 -5 -3 -10 -1 -10 4 0 6 5 11
10 11 6 0 10 -2 10 -4z m-425 -45 c10 -18 -17 -23 -33 -7 -15 15 -15 16 5 16
12 0 24 -4 28 -9z m-40 -31 c3 -5 1 -10 -4 -10 -6 0 -11 5 -11 10 0 6 2 10 4
10 3 0 8 -4 11 -10z m-35 -34 c0 -3 -7 -6 -15 -6 -9 0 -15 9 -15 21 0 18 2 19
15 5 8 -8 15 -17 15 -20z m251 -33 c11 -13 12 -17 1 -21 -22 -7 -53 -46 -48
-59 4 -8 -3 -13 -17 -12 -12 0 -16 3 -9 6 6 2 12 12 12 21 0 10 7 25 15 35 7
11 11 25 8 33 -7 20 21 18 38 -3z m-321 -7 c0 -3 -4 -8 -10 -11 -5 -3 -10 -1
-10 4 0 6 5 11 10 11 6 0 10 -2 10 -4z m76 -21 c-3 -9 1 -18 8 -21 8 -3 17
-16 20 -30 7 -25 20 -31 31 -14 4 6 14 8 23 5 11 -3 22 3 30 15 14 23 10 25
-20 9 -13 -7 -24 -7 -30 -1 -11 11 48 35 63 26 13 -7 11 -44 -2 -44 -5 0 -7
-4 -4 -10 3 -5 0 -10 -8 -10 -8 0 -18 -7 -21 -16 -7 -18 -46 -10 -59 12 -4 8
-16 14 -25 14 -15 0 -15 2 -2 11 13 8 12 12 -7 26 -27 18 -30 43 -7 43 10 0
14 -5 10 -15z m44 -5 c0 -5 -5 -10 -11 -10 -5 0 -7 5 -4 10 3 6 8 10 11 10 2
0 4 -4 4 -10z m282 -32 c-9 -9 -12 -7 -12 12 0 19 3 21 12 12 9 -9 9 -15 0
-24z m-378 -18 c-6 -6 -10 -2 -11 12 -2 16 1 18 10 9 7 -7 8 -14 1 -21z m162
-69 c0 -12 -5 -17 -14 -13 -11 4 -13 0 -7 -17 5 -18 3 -21 -17 -17 -15 2 -22
9 -20 20 2 9 -2 16 -8 16 -6 0 -8 5 -5 10 5 8 11 8 20 0 9 -7 16 -6 25 5 17
20 26 19 26 -4z m-116 -11 c0 -22 -7 -25 -29 -11 -16 10 -6 31 15 31 8 0 14
-9 14 -20z m268 -29 c3 -8 -1 -12 -9 -9 -7 2 -15 10 -17 17 -3 8 1 12 9 9 7
-2 15 -10 17 -17z m-38 -10 c0 -5 -9 -11 -20 -14 -22 -6 -26 3 -8 21 11 11 28
7 28 -7z m-72 -18 c2 -8 -6 -13 -22 -13 -19 0 -24 4 -19 15 6 18 34 16 41 -2z
m-168 -9 c0 -14 -3 -14 -15 -4 -8 7 -15 14 -15 16 0 2 7 4 15 4 8 0 15 -7 15
-16z m89 -45 c-19 -12 -39 -11 -39 2 0 6 7 9 15 5 8 -3 15 -1 15 5 0 6 5 7 11
3 8 -4 7 -9 -2 -15z m14781 -140 c53 -30 84 -53 82 -62 -1 -10 5 -13 20 -10
30 5 59 -13 40 -25 -8 -6 -31 -128 -62 -343 -28 -184 -51 -341 -53 -349 -1 -8
-17 25 -35 74 -18 48 -41 96 -51 105 -11 9 -22 27 -26 40 -6 20 -4 23 9 18 9
-4 16 -2 16 2 0 9 -146 619 -157 655 -4 16 7 12 63 -19 38 -22 107 -60 154
-86z m-12673 19 c-3 -8 -6 -5 -6 6 -1 11 2 17 5 13 3 -3 4 -12 1 -19z m-217 0
c0 -16 -21 -18 -36 -4 -14 14 -13 16 10 14 14 -1 26 -6 26 -10z m88 0 c9 -9
15 -9 24 0 18 18 27 15 21 -8 -3 -11 -14 -20 -24 -20 -11 0 -19 -4 -19 -10 0
-5 -4 -10 -10 -10 -5 0 -10 9 -10 20 0 11 -7 20 -15 20 -8 0 -15 5 -15 10 0
14 33 13 48 -2z m392 -3 c0 -8 -7 -15 -15 -15 -8 0 -15 -6 -15 -12 0 -9 -4 -8
-10 2 -8 12 -10 12 -10 1 0 -8 -3 -11 -6 -8 -9 9 16 38 26 32 5 -3 11 -1 15 5
9 14 15 12 15 -5z m302 -56 c2 -5 11 -11 19 -12 9 -2 24 -11 35 -21 11 -12 19
-15 22 -7 7 22 82 5 82 -20 0 -6 -4 -8 -8 -5 -5 3 -9 -1 -9 -8 0 -10 8 -12 31
-5 16 5 32 6 35 3 9 -9 -41 -45 -55 -40 -7 3 -15 -2 -18 -9 -3 -8 -27 -25 -53
-38 -26 -13 -58 -30 -70 -38 -18 -11 -27 -11 -41 -2 -15 9 -19 8 -19 -3 0 -8
5 -14 11 -14 6 0 -15 -13 -48 -29 -32 -16 -65 -27 -74 -24 -11 5 -13 3 -7 -7
5 -9 4 -11 -4 -6 -6 4 -8 12 -5 18 4 6 0 14 -7 19 -9 6 -4 7 15 3 19 -5 27 -3
22 4 -4 6 2 8 14 5 11 -3 20 0 20 6 0 6 -11 11 -25 11 -14 0 -25 -5 -25 -10 0
-6 -13 -4 -30 5 -22 11 -29 21 -26 38 1 12 9 22 17 22 8 0 13 -7 11 -16 -1 -9
5 -19 13 -23 9 -3 13 -2 10 4 -4 6 1 17 9 26 21 21 20 51 -1 57 -11 3 -6 5 11
6 23 1 27 5 23 20 -4 16 0 19 24 16 26 -4 28 -2 19 15 -17 31 -12 40 19 34 23
-5 29 -2 34 15 5 22 23 28 29 10z m-368 -162 c4 -19 3 -26 -4 -22 -5 3 -10 18
-10 32 0 32 5 28 14 -10z m-39 13 c3 -5 -1 -10 -10 -10 -9 0 -13 5 -10 10 3 6
8 10 10 10 2 0 7 -4 10 -10z m149 -35 c3 -9 0 -15 -9 -15 -16 0 -27 14 -18 24
10 10 21 7 27 -9z m13 -41 c-3 -3 -12 -4 -19 -1 -8 3 -5 6 6 6 11 1 17 -2 13
-5z m10333 -824 l-8 -35 -1 31 c-1 17 2 34 6 37 11 12 12 3 3 -33z m-9265
-120 l47 -69 -20 -65 c-28 -94 -22 -100 101 -94 99 5 117 0 117 -34 0 -12 -15
-25 -43 -37 -23 -10 -48 -29 -54 -42 -6 -13 -32 -50 -57 -81 -39 -46 -47 -63
-44 -90 l3 -33 80 -6 c110 -8 112 -10 114 -76 1 -54 28 -134 50 -147 6 -4 11
-19 11 -33 0 -15 8 -36 19 -47 30 -34 51 -140 51 -264 l0 -111 35 -27 c20 -15
37 -25 39 -23 21 24 26 66 26 204 0 116 4 165 15 192 8 19 15 46 15 58 0 12 9
51 20 86 12 35 19 72 16 82 -6 24 41 47 96 47 57 0 88 -9 88 -26 0 -8 5 -14
10 -14 6 0 10 6 10 14 0 7 14 16 31 20 17 3 220 6 450 6 472 0 476 -1 463 -60
-9 -39 -12 -176 -3 -184 2 -3 93 -6 200 -7 l195 -3 2 -33 c2 -18 -1 -33 -6
-33 -5 0 -34 11 -64 24 -31 14 -71 28 -91 31 -73 14 -140 -31 -174 -117 l-15
-38 -34 47 c-19 27 -32 53 -30 60 3 6 -4 13 -15 16 -11 3 -22 17 -25 35 -5 23
-10 28 -25 25 -10 -3 -19 -7 -19 -9 0 -10 26 -50 38 -57 13 -8 62 -82 62 -92
0 -4 -4 -3 -10 0 -5 3 -10 1 -10 -5 0 -7 6 -10 14 -7 14 5 36 -10 36 -25 0 -4
-11 -8 -24 -8 -14 0 -28 -5 -32 -11 -5 -8 -10 -7 -16 4 -5 9 -15 14 -23 11 -8
-3 -46 1 -84 10 -150 34 -234 14 -273 -64 -20 -38 -23 -116 -9 -168 7 -24 6
-44 -5 -74 -27 -76 -31 -78 -173 -75 -113 2 -130 0 -167 -20 -22 -12 -51 -33
-65 -47 -18 -19 -28 -22 -41 -15 -19 10 -26 -5 -8 -16 14 -9 12 -25 -2 -25 -7
0 -14 -10 -14 -22 -1 -13 -6 -49 -12 -81 -6 -32 -8 -65 -5 -73 3 -8 0 -49 -7
-90 -10 -60 -11 -89 -1 -143 14 -79 68 -191 99 -207 12 -6 35 -28 51 -50 16
-21 49 -52 75 -69 25 -16 44 -34 42 -40 -1 -5 -18 -14 -37 -20 -29 -8 -34 -14
-31 -36 2 -14 -5 -35 -15 -47 -17 -20 -20 -20 -50 -7 -34 14 -40 33 -23 64 8
16 2 20 -48 34 -104 30 -115 61 -48 131 l33 36 -146 0 -147 0 -34 -55 -35 -54
-506 -1 -506 0 -37 55 -36 55 -417 0 -416 0 41 28 c53 35 144 137 173 191 65
126 14 250 -120 287 -78 22 -111 57 -111 116 0 24 24 112 55 203 70 207 82
281 65 378 -15 88 -49 158 -92 190 -121 91 -211 86 -324 -16 -29 -26 -55 -47
-58 -47 -3 0 -6 11 -6 24 0 14 -5 37 -10 52 -9 24 -6 32 36 80 53 63 46 72
-11 14 -43 -44 -60 -43 -51 3 6 28 5 30 -7 13 -13 -18 -15 -18 -45 4 -44 33
-76 20 -121 -48 l-35 -52 -27 57 -26 58 21 17 c19 16 53 18 301 20 465 4 808
-1 819 -12 13 -13 62 -13 86 0 14 7 22 7 31 -2 8 -9 33 -12 77 -10 37 2 83 -1
103 -7 l36 -11 6 -81 c3 -46 11 -88 19 -97 40 -49 48 -89 48 -253 0 -125 3
-167 15 -190 l16 -30 28 23 c33 27 41 78 41 259 0 104 0 106 30 134 17 16 30
36 30 46 0 9 7 19 15 23 20 7 36 49 41 106 11 114 11 115 35 127 13 7 52 13
86 13 57 0 63 2 68 23 8 30 -7 67 -42 108 -16 19 -39 49 -50 68 -12 19 -36 42
-55 50 -23 11 -34 24 -36 43 l-3 26 100 -1 c83 -2 103 1 117 15 15 15 16 23 6
56 -17 56 -15 70 17 137 33 69 65 107 85 99 7 -3 35 -36 61 -74z m5191 24 c53
-82 59 -107 44 -170 -10 -41 -10 -58 -2 -66 7 -7 49 -12 100 -13 49 -1 94 -5
101 -9 21 -13 11 -37 -24 -58 -20 -11 -42 -33 -50 -48 -8 -15 -35 -52 -60 -81
-38 -45 -45 -60 -43 -89 l3 -35 81 -5 c45 -3 88 -11 96 -18 10 -8 15 -28 13
-57 -1 -25 2 -45 5 -45 4 0 10 -30 14 -67 8 -82 28 -124 70 -157 l33 -25 6
-156 c7 -154 7 -156 34 -180 36 -31 38 -31 53 6 10 22 11 65 6 164 -5 110 -4
141 10 177 9 24 19 61 24 83 4 22 14 68 21 103 7 34 17 62 21 62 5 0 7 4 4 9
-8 13 50 31 100 31 24 0 46 5 49 10 9 14 79 12 94 -2 14 -15 470 -12 486 3 12
12 82 12 90 -1 9 -15 158 -13 173 3 10 9 72 12 238 13 l225 1 20 -25 c16 -21
19 -41 19 -128 l0 -104 255 -2 254 -3 -91 -84 c-55 -51 -88 -77 -84 -64 9 27
-13 42 -26 18 -9 -15 -13 -12 -35 24 -13 23 -25 41 -27 41 -1 0 -3 -13 -3 -30
0 -16 6 -30 12 -30 7 0 17 -11 23 -25 11 -24 10 -25 -12 -19 -31 7 -44 -13
-20 -31 18 -13 17 -14 -13 -15 -48 0 -74 13 -144 75 -114 101 -184 118 -276
65 -58 -33 -91 -73 -118 -140 -15 -37 -18 -77 -19 -231 -1 -169 -3 -189 -20
-208 -29 -32 -44 -26 -48 17 -3 40 -21 51 -26 15 -5 -31 -13 -29 -42 13 -33
47 -49 64 -61 64 -17 0 -9 -17 32 -64 23 -26 39 -49 36 -53 -7 -6 -170 86
-175 99 -2 4 -7 6 -12 3 -5 -3 -20 0 -34 6 -14 7 -29 9 -32 6 -8 -7 20 -37 34
-37 21 0 141 -59 161 -79 24 -24 27 -41 7 -41 -29 0 -74 -57 -91 -114 -13 -44
-27 -67 -65 -102 -112 -105 -124 -240 -33 -361 l24 -33 -435 0 -435 0 -32 -50
-32 -50 -506 0 -506 1 -34 54 c-19 30 -37 54 -40 53 -3 0 -138 0 -300 1 l-294
1 86 61 c125 89 237 212 298 329 31 60 32 147 3 187 -30 41 -80 63 -146 63
-49 0 -138 23 -138 36 0 3 13 30 29 62 46 92 46 114 0 28 l-43 -79 -18 23
c-14 18 -18 34 -14 69 6 46 6 46 -5 11 l-12 -35 -13 30 c-25 59 -26 116 -4
342 16 167 21 257 16 336 -5 87 -4 107 6 100 7 -4 121 -10 254 -13 169 -4 245
-9 256 -17 11 -9 15 -40 17 -120 2 -96 6 -115 32 -169 27 -58 29 -70 29 -183
0 -91 4 -130 16 -152 l15 -31 32 25 32 24 6 159 c4 88 7 167 8 177 0 9 9 17
19 17 30 0 61 29 71 68 5 20 14 83 21 138 14 118 20 124 119 124 60 0 71 7 71
48 0 10 -25 50 -55 90 -30 40 -55 77 -55 82 0 5 -16 18 -35 30 -33 21 -46 52
-26 65 5 3 50 7 100 8 53 2 96 8 103 15 9 9 8 27 -5 77 -10 36 -15 71 -11 78
32 54 102 137 117 137 10 0 32 -23 53 -56z m3830 -445 c73 -22 310 -113 333
-128 7 -5 15 -29 18 -54 5 -43 7 -45 43 -51 52 -8 62 -39 38 -117 -9 -31 -16
-39 -35 -39 -13 0 -72 -16 -132 -35 -254 -82 -341 -51 -493 175 -32 47 -73
101 -93 120 -41 40 -42 48 -14 85 20 24 26 26 64 21 37 -6 44 -4 69 25 27 30
31 31 81 25 29 -3 83 -15 121 -27z m-11774 -181 c-9 -9 -15 -9 -24 0 -9 9 -7
12 12 12 19 0 21 -3 12 -12z m10915 -2 c1 -1 -7 -33 -17 -71 -10 -39 -22 -110
-25 -160 l-7 -89 -21 29 c-28 39 -58 69 -82 83 -19 10 -19 11 3 56 12 26 22
50 22 53 0 11 -49 -59 -56 -79 -9 -28 -38 -17 -45 17 -7 30 -7 30 -8 3 -1 -27
-5 -29 -63 -42 l-28 -6 0 89 0 89 33 20 c29 18 44 20 162 15 72 -3 131 -6 132
-7z m-5528 -17 c17 -6 31 -16 31 -22 0 -7 3 -22 6 -34 8 -31 -13 -30 -91 2
-94 39 -126 42 -161 12 -27 -23 -35 -24 -100 -20 -83 6 -115 -6 -181 -70 l-43
-41 0 55 c0 30 -5 60 -10 65 -15 15 -1 44 24 54 32 13 487 12 525 -1z m-9471
-981 c19 -19 14 -28 -18 -28 -16 0 -30 2 -30 4 0 2 -3 11 -6 20 -5 12 0 16 18
16 13 0 29 -5 36 -12z m276 -77 c17 -18 16 -19 -13 -26 -21 -4 -38 -1 -53 9
l-22 15 25 10 c35 14 44 13 63 -8z m249 -32 c20 -7 37 -16 37 -19 0 -4 -26
-14 -57 -23 -54 -15 -59 -14 -96 4 -44 23 -42 29 16 46 46 12 45 12 100 -8z
m-407 -10 c16 -17 16 -22 4 -29 -21 -14 -37 -12 -65 6 -32 21 -32 32 3 37 15
2 30 5 33 6 3 0 14 -8 25 -20z m-233 -96 c-7 -2 -19 -2 -25 0 -7 3 -2 5 12 5
14 0 19 -2 13 -5z m401 -2 c3 -4 -3 -16 -13 -25 -14 -13 -28 -16 -55 -11 -41
8 -43 12 -18 31 19 15 78 19 86 5z m2103 -107 c50 -19 48 -29 -7 -38 -31 -5
-53 -1 -88 15 -45 21 -46 22 -22 29 41 13 72 11 117 -6z m1523 -66 c80 -37
119 -119 60 -126 -81 -8 -91 -12 -80 -32 17 -31 12 -68 -10 -80 -12 -6 -40
-10 -63 -8 l-42 3 0 50 0 49 -45 4 c-60 5 -77 21 -61 60 22 52 73 92 127 101
27 4 56 4 64 1 8 -3 31 -13 50 -22z m-3895 2 c-3 -5 -11 -10 -16 -10 -6 0 -7
5 -4 10 3 6 11 10 16 10 6 0 7 -4 4 -10z m2085 0 c0 -5 -9 -10 -20 -10 -11 0
-20 5 -20 10 0 6 9 10 20 10 11 0 20 -4 20 -10z m460 0 c0 -5 -7 -10 -15 -10
-8 0 -15 5 -15 10 0 6 7 10 15 10 8 0 15 -4 15 -10z m-340 -30 c13 -9 13 -11
0 -20 -8 -5 -19 -10 -25 -10 -5 0 -17 5 -25 10 -13 9 -13 11 0 20 8 5 20 10
25 10 6 0 17 -5 25 -10z m250 -8 c0 -4 -9 -13 -19 -19 -22 -14 -86 2 -75 18 6
11 94 12 94 1z m-406 -41 c17 -19 17 -20 -4 -31 -18 -9 -28 -9 -46 1 -30 16
-30 27 -1 39 31 12 32 12 51 -9z m542 -6 c2 -5 -3 -18 -10 -27 -11 -15 -18
-16 -46 -7 l-33 12 24 18 c25 20 60 22 65 4z m11258 -10 c105 -50 118 -113 26
-135 -47 -11 -51 -14 -46 -36 13 -52 -35 -81 -82 -48 -23 16 -30 58 -11 70 7
4 -10 18 -42 34 -60 29 -73 58 -42 92 46 52 118 60 197 23z m-13698 -42 c18
-24 18 -53 0 -53 -27 0 -66 19 -66 32 0 11 25 29 49 37 2 0 10 -7 17 -16z
m2158 8 c3 -5 -5 -16 -19 -25 -20 -13 -28 -14 -45 -4 -11 7 -20 16 -20 20 0
16 75 25 84 9z m-1704 -51 c0 -5 -2 -10 -4 -10 -3 0 -8 5 -11 10 -3 6 -1 10 4
10 6 0 11 -4 11 -10z m120 -86 c13 -14 11 -18 -18 -45 -18 -16 -37 -29 -42
-29 -13 0 -40 54 -40 81 0 20 3 21 43 15 23 -4 49 -14 57 -22z m16851 16 c26
0 24 -15 -3 -31 -15 -9 -39 -12 -68 -9 l-45 5 35 22 c19 13 41 21 48 18 8 -3
22 -5 33 -5z m156 -33 c-3 -8 -15 -17 -26 -20 -16 -4 -21 0 -21 13 0 12 9 20
23 22 27 5 31 3 24 -15z m-11836 2 c38 -20 -10 -40 -56 -22 -15 5 -14 8 6 19
29 16 26 16 50 3z m190 -8 l32 -19 -39 -11 c-32 -9 -43 -7 -68 8 l-30 19 35
10 c19 6 35 11 36 11 2 1 17 -8 34 -18z m7136 -47 c1 -5 -15 -17 -37 -26 -37
-15 -43 -15 -80 -1 -22 9 -40 19 -40 22 0 3 22 18 48 32 l47 27 29 -22 c17
-13 31 -27 33 -32z m-13057 36 c0 -5 -5 -10 -11 -10 -5 0 -7 5 -4 10 3 6 8 10
11 10 2 0 4 -4 4 -10z m17718 -6 c13 -4 7 -20 -21 -56 -11 -14 -20 -15 -55 -6
-50 12 -52 25 -11 54 28 20 44 21 87 8z m-5053 -45 c5 -22 1 -30 -24 -48 l-30
-22 -7 37 c-6 32 -3 39 17 55 27 20 35 16 44 -22z m-7267 -4 c-8 -17 -24 -28
-52 -36 -23 -5 -47 -12 -53 -14 -22 -7 -14 6 24 41 23 22 47 34 65 34 26 0 27
-2 16 -25z m-4484 -1 c10 -25 0 -28 -36 -13 -32 13 -32 13 -8 20 37 10 37 10
44 -7z m16396 -9 c-16 -17 -34 -25 -57 -25 -38 0 -43 12 -10 28 19 10 36 14
81 21 5 0 -1 -10 -14 -24z m-11704 3 c9 -9 -36 -35 -74 -42 -32 -6 -32 -5 -16
19 18 28 71 41 90 23z m438 3 c8 -12 -38 -23 -59 -15 -13 5 -14 8 -3 15 17 11
55 11 62 0z m-5714 -11 c0 -5 -2 -10 -4 -10 -3 0 -8 5 -11 10 -3 6 -1 10 4 10
6 0 11 -4 11 -10z m5463 4 c12 -12 -41 -44 -72 -44 -36 0 -37 3 -13 29 16 19
72 28 85 15z m7058 -35 c16 -11 29 -24 29 -28 0 -4 -18 -14 -40 -21 -37 -12
-43 -12 -68 7 -15 11 -26 24 -24 29 2 7 47 28 70 33 2 1 17 -8 33 -20z m4649
-7 c0 -18 -42 -52 -65 -52 -29 0 -32 16 -8 42 16 18 73 26 73 10z m350 -18 c6
-7 -22 -24 -40 -24 -8 0 -22 5 -30 10 -13 9 -13 11 0 20 14 9 58 5 70 -6z
m-12660 -18 c0 -20 -16 -36 -36 -36 -28 0 -31 15 -6 29 17 11 42 14 42 7z
m670 -5 c0 -17 -29 -33 -50 -26 -17 5 -19 10 -9 21 12 15 59 19 59 5z m250 0
c0 -18 -29 -32 -54 -25 -21 5 -24 9 -15 20 12 15 69 19 69 5z m-480 -26 c-13
-16 -50 -21 -50 -7 0 15 13 22 38 22 21 0 22 -2 12 -15z m-302 -40 c-2 -2 -15
-6 -30 -10 -23 -6 -26 -4 -21 14 6 23 46 33 51 13 2 -8 2 -15 0 -17z m-4348
-109 c0 -8 -7 -16 -15 -20 -8 -3 -15 -1 -15 4 0 6 5 10 11 10 5 0 7 5 4 10 -3
6 -1 10 4 10 6 0 11 -6 11 -14z m12575 -136 c3 -5 2 -10 -4 -10 -5 0 -13 5
-16 10 -3 6 -2 10 4 10 5 0 13 -4 16 -10z m-585 -36 c0 -9 -7 -14 -17 -12 -25
5 -28 28 -4 28 12 0 21 -6 21 -16z m-11415 -4 c3 -5 2 -10 -4 -10 -5 0 -13 5
-16 10 -3 6 -2 10 4 10 5 0 13 -4 16 -10z m60 -10 c3 -5 1 -10 -4 -10 -6 0
-11 5 -11 10 0 6 2 10 4 10 3 0 8 -4 11 -10z m10930 -40 c-3 -5 -13 -10 -21
-10 -8 0 -14 5 -14 10 0 6 9 10 21 10 11 0 17 -4 14 -10z m-10635 -130 c0 -5
-5 -10 -11 -10 -5 0 -7 5 -4 10 3 6 8 10 11 10 2 0 4 -4 4 -10z m15605 -1 c4
-6 5 -12 2 -15 -7 -7 -37 7 -37 17 0 13 27 11 35 -2z m-15535 -9 c0 -5 -2 -10
-4 -10 -3 0 -8 5 -11 10 -3 6 -1 10 4 10 6 0 11 -4 11 -10z m13790 0 c0 -5 -6
-10 -14 -10 -8 0 -18 5 -21 10 -3 6 3 10 14 10 12 0 21 -4 21 -10z m48 -30
c14 -23 5 -26 -20 -6 -10 7 -15 16 -11 19 10 11 18 8 31 -13z m-4158 -15 c0
-8 -9 -15 -20 -15 -11 0 -20 7 -20 15 0 8 9 15 20 15 11 0 20 -7 20 -15z
m-1242 -17 c21 -21 13 -29 -25 -26 -55 5 -54 31 3 37 5 0 15 -4 22 -11z m-309
-44 c32 -41 27 -54 -19 -54 -42 0 -47 8 -34 58 8 29 28 28 53 -4z m-2364 -4
c3 -5 1 -10 -4 -10 -6 0 -11 5 -11 10 0 6 2 10 4 10 3 0 8 -4 11 -10z m2075 0
c0 -5 -2 -10 -4 -10 -3 0 -8 5 -11 10 -3 6 -1 10 4 10 6 0 11 -4 11 -10z
m-7030 -66 c0 -12 -6 -11 -32 2 -30 15 -31 18 -13 24 22 8 45 -5 45 -26z
m8510 32 c0 -2 -9 -6 -20 -9 -11 -3 -20 -1 -20 4 0 5 9 9 20 9 11 0 20 -2 20
-4z m6170 -91 c22 -40 23 -47 10 -56 -14 -9 -59 -6 -102 7 -10 3 -18 14 -18
24 0 19 53 70 73 70 7 0 24 -20 37 -45z m-14390 25 c0 -5 -2 -10 -4 -10 -3 0
-8 5 -11 10 -3 6 -1 10 4 10 6 0 11 -4 11 -10z m1138 -20 c29 -38 28 -47 -5
-54 -75 -14 -100 9 -63 57 27 35 41 34 68 -3z m14221 -21 c6 -28 9 -55 5 -60
-9 -15 -42 -10 -84 11 -54 28 -53 52 5 83 51 27 62 22 74 -34z m-14869 19 c47
-35 34 -61 -35 -69 -35 -5 -44 16 -25 62 15 35 22 36 60 7z m1224 -23 c3 -8 1
-17 -3 -19 -10 -6 -61 38 -61 53 0 14 57 -17 64 -34z m4928 8 c36 -32 18 -54
-39 -46 -37 6 -41 18 -16 45 20 22 31 23 55 1z m-322 -2 c0 -12 -29 -23 -41
-15 -18 10 -9 24 16 24 14 0 25 -4 25 -9z m7604 -13 c26 -36 20 -48 -22 -48
-51 0 -56 7 -29 41 27 34 32 35 51 7z m-12274 2 c0 -5 -2 -10 -4 -10 -3 0 -8
5 -11 10 -3 6 -1 10 4 10 6 0 11 -4 11 -10z m13339 -16 c34 -43 28 -54 -29
-54 -38 0 -50 4 -50 15 0 8 -7 15 -16 15 -8 0 -12 5 -9 10 4 6 11 8 16 4 6 -3
19 3 30 15 26 27 33 26 58 -5z m-13498 -26 c-11 -10 -13 -10 -7 0 4 6 2 12 -4
12 -6 0 -8 5 -4 11 4 8 9 8 17 0 8 -8 7 -14 -2 -23z m-1442 11 c17 -6 31 -17
31 -24 0 -14 -65 -75 -80 -75 -18 0 -32 42 -25 76 7 37 20 42 74 23z m14586
-9 c3 -4 -2 -13 -10 -20 -12 -10 -18 -10 -30 0 -24 20 -18 38 10 32 14 -2 27
-8 30 -12z m-9135 0 c0 -5 -2 -10 -4 -10 -3 0 -8 5 -11 10 -3 6 -1 10 4 10 6
0 11 -4 11 -10z m-4952 -12 c21 -21 14 -38 -15 -38 -42 0 -60 15 -44 34 16 19
42 21 59 4z m6032 2 c0 -5 -7 -10 -15 -10 -8 0 -15 5 -15 10 0 6 7 10 15 10 8
0 15 -4 15 -10z m7575 0 c3 -5 1 -10 -4 -10 -6 0 -11 5 -11 10 0 6 2 10 4 10
3 0 8 -4 11 -10z m-14415 -10 c0 -15 -38 -32 -45 -20 -5 8 17 23 43 29 1 1 2
-3 2 -9z m7095 -10 c3 -5 -3 -10 -14 -10 -12 0 -21 5 -21 10 0 6 6 10 14 10 8
0 18 -4 21 -10z m-7525 -15 c-7 -9 -15 -13 -19 -10 -3 3 1 10 9 15 21 14 24
12 10 -5z m976 -10 c25 -38 12 -59 -34 -50 -53 9 -60 20 -32 50 30 32 45 32
66 0z m6706 -22 c10 -9 18 -22 18 -30 0 -18 -77 -17 -96 1 -19 20 -18 26 5 26
11 0 23 5 26 10 9 15 26 12 47 -7z m-7592 -2 c0 -6 -4 -13 -10 -16 -5 -3 -10
1 -10 9 0 9 5 16 10 16 6 0 10 -4 10 -9z m7154 -33 c5 -9 8 -20 4 -23 -9 -9
-48 18 -48 33 0 18 30 11 44 -10z"/>
<path d="M15488 9665 c-3 -6 -13 -34 -21 -62 l-16 -53 39 0 39 0 -15 53 c-8
28 -16 56 -18 62 -1 6 -4 6 -8 0z"/>
<path d="M15876 9467 c-9 -30 -16 -60 -16 -66 0 -17 -17 -13 -25 7 -5 12 -13
0 -31 -48 -13 -36 -24 -66 -24 -67 0 -2 23 -3 50 -3 28 0 50 5 50 10 0 6 18
10 40 10 22 0 40 3 40 6 0 9 -61 198 -65 202 -2 2 -10 -21 -19 -51z"/>
<path d="M18890 8110 c0 -5 5 -10 10 -10 6 0 10 5 10 10 0 6 -4 10 -10 10 -5
0 -10 -4 -10 -10z"/>
<path d="M16267 8093 c-12 -12 -7 -25 7 -20 10 4 13 1 9 -9 -3 -7 0 -14 6 -14
12 0 14 11 5 34 -7 17 -16 20 -27 9z"/>
<path d="M18868 8072 c-10 -2 -18 -12 -18 -23 0 -10 -7 -19 -15 -19 -8 0 -15
-4 -15 -10 0 -5 4 -10 9 -10 16 0 71 22 70 28 -2 22 -16 37 -31 34z"/>
<path d="M18915 8030 c3 -5 8 -10 11 -10 2 0 4 5 4 10 0 6 -5 10 -11 10 -5 0
-7 -4 -4 -10z"/>
<path d="M17740 8020 c0 -5 7 -7 15 -4 8 4 15 8 15 10 0 2 -7 4 -15 4 -8 0
-15 -4 -15 -10z"/>
<path d="M18890 8011 c0 -6 5 -13 10 -16 6 -3 10 1 10 9 0 9 -4 16 -10 16 -5
0 -10 -4 -10 -9z"/>
<path d="M17916 7984 c-4 -9 1 -14 14 -14 23 0 27 15 6 23 -8 3 -17 -1 -20 -9z"/>
<path d="M16145 7980 c-7 -12 2 -30 16 -30 5 0 9 9 9 20 0 21 -15 27 -25 10z"/>
<path d="M18182 7978 c5 -15 28 -18 29 -3 0 6 -7 12 -17 13 -10 3 -15 -1 -12
-10z"/>
<path d="M18948 7983 c-21 -5 -23 -24 -6 -41 17 -17 35 -15 42 5 8 20 -13 41
-36 36z"/>
<path d="M16040 7962 c0 -11 7 -18 20 -18 13 0 19 5 15 14 -3 7 -5 16 -5 18 0
2 -7 4 -15 4 -8 0 -15 -8 -15 -18z"/>
<path d="M17197 7936 c-9 -13 -14 -26 -11 -29 7 -7 53 36 48 45 -9 14 -21 9
-37 -16z"/>
<path d="M18017 7943 c-11 -11 -17 -13 -17 -5 0 7 -7 12 -15 12 -8 0 -15 -6
-15 -14 0 -8 8 -13 17 -12 10 0 18 -5 18 -11 0 -7 3 -13 8 -13 4 0 12 0 18 0
5 0 7 5 4 10 -3 6 3 10 14 10 18 0 38 17 30 24 -16 14 -47 14 -62 -1z"/>
<path d="M18900 7949 c0 -5 5 -7 10 -4 6 3 10 8 10 11 0 2 -4 4 -10 4 -5 0
-10 -5 -10 -11z"/>
<path d="M16087 7934 c-9 -10 2 -24 18 -24 9 0 12 6 9 15 -6 16 -17 19 -27 9z"/>
<path d="M15923 7913 c-7 -2 -13 -12 -13 -20 0 -10 6 -13 16 -9 9 3 18 6 20 6
2 0 4 7 4 15 0 15 -6 17 -27 8z"/>
<path d="M16982 7886 c1 -10 8 -17 13 -17 15 1 12 24 -3 29 -9 3 -13 -2 -10
-12z"/>
<path d="M18120 7890 c0 -5 5 -10 11 -10 5 0 7 5 4 10 -3 6 -8 10 -11 10 -2 0
-4 -4 -4 -10z"/>
<path d="M17072 7865 c0 -16 2 -22 5 -12 2 9 2 23 0 30 -3 6 -5 -1 -5 -18z"/>
<path d="M17230 7876 c0 -9 7 -16 16 -16 17 0 14 22 -4 28 -7 2 -12 -3 -12
-12z"/>
<path d="M17990 7875 c0 -16 16 -20 24 -6 3 5 -1 11 -9 15 -9 3 -15 0 -15 -9z"/>
<path d="M16180 7868 c0 -9 4 -19 9 -22 15 -9 41 5 41 21 0 12 -3 13 -13 4
-10 -8 -17 -7 -25 1 -9 9 -12 8 -12 -4z"/>
<path d="M16015 7850 c-16 -18 -16 -20 -2 -20 10 0 17 -5 17 -11 0 -5 5 -7 10
-4 12 7 13 55 2 55 -5 0 -17 -9 -27 -20z"/>
<path d="M16532 7856 c1 -10 8 -17 13 -17 15 1 12 24 -3 29 -9 3 -13 -2 -10
-12z"/>
<path d="M18071 7856 c-1 -11 -6 -16 -14 -13 -10 4 -13 -2 -9 -19 2 -13 9 -27
14 -30 18 -11 27 11 18 46 -4 19 -8 27 -9 16z"/>
<path d="M17006 7834 l-18 -26 28 4 c21 2 29 9 29 22 0 29 -18 29 -39 0z"/>
<path d="M16827 7843 c-13 -12 -7 -33 8 -33 8 0 15 9 15 20 0 20 -11 26 -23
13z"/>
<path d="M16268 7833 c-10 -2 -18 -9 -18 -14 0 -13 12 -11 34 6 20 15 16 17
-16 8z"/>
<path d="M16063 7812 c-1 -13 6 -18 25 -19 15 0 19 1 10 4 -10 2 -18 11 -18
19 0 21 -15 17 -17 -4z"/>
<path d="M16910 7780 c-8 -16 -8 -20 3 -20 18 0 39 24 30 33 -11 12 -22 8 -33
-13z"/>
<path d="M17513 7790 c-43 -18 -24 -36 31 -30 14 1 17 -3 13 -14 -5 -14 -3
-15 13 -6 25 13 25 15 -2 40 -24 22 -24 22 -55 10z"/>
<path d="M16280 7770 c0 -5 5 -10 10 -10 6 0 10 -4 10 -8 0 -4 -9 -8 -20 -8
-11 0 -20 6 -20 13 0 11 -5 11 -22 2 -51 -27 -52 -65 -2 -75 31 -6 40 -3 61
20 18 20 23 34 19 52 -6 23 -36 35 -36 14z"/>
<path d="M16020 7750 c-24 -15 -7 -19 25 -5 23 10 25 14 10 14 -11 0 -27 -3
-35 -9z"/>
<path d="M16482 7739 c2 -7 10 -15 17 -17 8 -3 12 1 9 9 -2 7 -10 15 -17 17
-8 3 -12 -1 -9 -9z"/>
<path d="M16570 7730 c0 -13 7 -20 18 -20 26 0 34 11 21 27 -17 20 -39 16 -39
-7z"/>
<path d="M16375 7718 c-14 -20 -14 -24 0 -34 8 -6 19 -22 24 -35 l9 -24 10 27
c8 19 8 35 -1 57 -14 37 -21 38 -42 9z"/>
<path d="M16940 7713 c-8 -3 -18 -11 -22 -17 -5 -8 -8 -7 -8 2 0 6 -6 12 -12
12 -8 0 -14 -16 -16 -40 -2 -40 -2 -40 33 -40 24 0 38 5 42 17 4 9 1 19 -5 21
-18 6 -14 30 4 28 9 0 19 5 21 12 5 12 -11 15 -37 5z"/>
<path d="M16581 7686 c-8 -10 -8 -16 3 -25 11 -9 17 -6 30 14 16 24 15 25 -3
25 -10 0 -24 -6 -30 -14z"/>
<path d="M17520 7681 c0 -12 5 -21 10 -21 6 0 10 6 10 14 0 8 -4 18 -10 21 -5
3 -10 -3 -10 -14z"/>
<path d="M16565 7609 c-4 -5 1 -20 12 -31 16 -20 17 -21 1 -15 -10 4 -18 2
-18 -2 0 -21 32 -18 57 4 28 23 28 24 8 39 -23 18 -51 20 -60 5z"/>
<path d="M16778 7593 c7 -3 16 -2 19 1 4 3 -2 6 -13 5 -11 0 -14 -3 -6 -6z"/>
<path d="M4867 7473 c-12 -3 -16 -10 -12 -24 4 -11 2 -19 -5 -19 -7 0 -14 9
-17 20 -4 14 -10 17 -22 11 -9 -5 -22 -6 -28 -4 -8 3 -13 -5 -13 -21 0 -29
-18 -44 -26 -22 -3 9 -13 16 -21 16 -8 0 -12 4 -9 9 4 5 -7 4 -24 -2 -19 -7
-28 -17 -25 -25 3 -9 0 -12 -9 -9 -8 3 -22 -3 -32 -14 -12 -14 -13 -19 -4 -19
7 0 11 -3 7 -6 -7 -7 -38 9 -40 22 -1 5 -5 8 -9 7 -5 -2 -8 5 -9 15 0 12 -3
10 -10 -8 -6 -15 -13 -20 -17 -14 -15 23 -42 10 -61 -30 l-19 -41 -18 32 c-11
18 -24 33 -30 33 -5 0 -16 -23 -23 -51 l-13 -51 -22 33 -21 33 -9 -27 c-10
-27 -46 -39 -46 -14 0 6 -8 22 -18 35 l-18 23 -20 -40 c-10 -23 -21 -41 -24
-41 -3 0 -13 15 -24 33 l-18 32 -16 -32 c-16 -33 -35 -42 -47 -23 -3 6 -15 10
-26 10 -10 0 -19 5 -19 10 0 6 4 10 8 10 5 0 9 7 9 15 0 18 -14 20 -20 3 -3
-9 -11 -6 -26 10 -12 12 -30 22 -40 22 -20 0 -35 -25 -25 -41 7 -12 34 -11 34
1 0 6 5 10 10 10 19 0 10 -23 -21 -52 -22 -21 -41 -30 -65 -30 -18 0 -38 -6
-45 -14 -6 -8 -17 -14 -24 -14 -7 0 -18 -13 -24 -30 -5 -16 -15 -30 -20 -30
-15 0 -14 13 2 29 10 11 8 12 -10 6 -18 -5 -23 -2 -23 12 -1 17 -1 17 -11 0
-8 -14 -7 -23 6 -37 10 -11 15 -29 13 -47 l-4 -28 -11 25 -11 25 -7 -32 c-8
-36 -14 -40 -33 -21 -15 15 -24 5 -24 -27 0 -32 -15 -42 -23 -15 -4 11 -11 18
-16 15 -12 -8 -12 -105 1 -105 6 0 10 -7 10 -15 0 -9 7 -15 16 -13 10 2 19 -3
22 -11 3 -8 0 -11 -7 -7 -16 11 -13 -10 4 -24 10 -9 15 -9 15 -1 0 6 7 11 15
11 8 0 15 -4 15 -8 0 -5 19 -5 43 -1 74 14 138 28 147 34 4 3 10 0 12 -6 3 -9
11 -8 28 1 14 8 36 14 50 15 14 1 36 7 50 15 14 7 26 12 28 11 2 -3 70 7 102
15 83 19 106 27 117 36 11 8 12 7 7 -8 -4 -13 3 -9 20 11 18 21 24 36 19 55
-5 24 -5 24 9 6 14 -17 19 -18 66 -5 34 8 52 18 52 28 0 12 3 12 12 3 17 -17
49 -15 64 6 13 16 15 16 29 -2 10 -13 15 -15 15 -6 0 7 3 11 6 7 3 -3 16 5 29
19 12 13 27 24 32 24 6 0 8 10 6 23 -4 19 1 24 36 33 22 6 44 7 48 3 4 -4 34
3 65 17 32 13 69 25 83 26 25 2 35 30 15 43 -17 11 -11 24 20 40 46 24 63 55
47 88 -9 19 -17 25 -33 21 -14 -4 -23 0 -27 10 -6 15 -32 19 -70 9z m-82 -121
c-6 -7 -34 11 -29 19 3 5 11 3 19 -4 7 -6 12 -13 10 -15z m89 -47 c3 -8 1 -15
-4 -15 -6 0 -10 7 -10 15 0 8 2 15 4 15 2 0 6 -7 10 -15z m-834 -36 c0 -5 4
-8 9 -5 5 3 11 -3 14 -14 3 -11 1 -22 -3 -25 -15 -9 -39 6 -33 21 3 8 -1 14
-11 14 -9 0 -16 5 -16 10 0 6 9 10 20 10 11 0 20 -5 20 -11z m-160 -199 c0 -5
-4 -10 -10 -10 -5 0 -10 5 -10 10 0 6 5 10 10 10 6 0 10 -4 10 -10z"/>
<path d="M5098 7395 c3 -23 9 -35 20 -35 8 0 12 3 9 7 -4 3 1 12 11 20 16 12
16 13 -1 7 -13 -5 -20 -1 -24 15 -9 34 -19 24 -15 -14z"/>
<path d="M3890 7400 c0 -13 32 -50 43 -50 5 0 7 10 5 21 -3 21 -48 48 -48 29z"/>
<path d="M4120 7399 c0 -5 5 -7 10 -4 6 3 10 8 10 11 0 2 -4 4 -10 4 -5 0 -10
-5 -10 -11z"/>
<path d="M3886 7345 c4 -8 11 -15 16 -15 6 0 5 6 -2 15 -7 8 -14 15 -16 15 -2
0 -1 -7 2 -15z"/>
<path d="M3793 7330 c-24 -10 -31 -30 -10 -30 14 1 47 24 47 34 0 8 -10 7 -37
-4z"/>
<path d="M3920 7310 c0 -11 7 -20 15 -20 13 0 14 4 5 20 -6 11 -13 20 -15 20
-3 0 -5 -9 -5 -20z"/>
<path d="M3873 7301 c0 -11 5 -17 9 -15 11 7 10 34 -1 34 -6 0 -9 -9 -8 -19z"/>
<path d="M3777 7283 c-35 -9 -15 -38 28 -40 32 -1 35 0 15 6 -15 4 -24 14 -24
24 1 9 1 16 0 16 0 -1 -9 -3 -19 -6z"/>
<path d="M3435 7219 c-10 -15 -4 -18 27 -12 15 3 25 9 22 14 -7 12 -41 11 -49
-2z"/>
<path d="M3485 7170 c-3 -5 -1 -10 4 -10 6 0 11 5 11 10 0 6 -2 10 -4 10 -3 0
-8 -4 -11 -10z"/>
<path d="M4564 7085 c-9 -21 -2 -26 13 -10 8 9 9 16 3 20 -6 3 -13 -1 -16 -10z"/>
<path d="M4627 7041 c-3 -11 1 -22 8 -25 8 -3 11 2 8 15 -7 24 14 25 21 2 4
-14 4 -14 3 2 -3 27 -33 31 -40 6z"/>
<path d="M4393 7035 c-10 -11 -10 -17 3 -29 21 -21 38 -20 29 2 -4 9 -8 23 -8
30 0 16 -9 15 -24 -3z"/>
<path d="M4507 7002 c-38 -23 -34 -36 6 -16 40 21 40 21 30 27 -5 3 -21 -2
-36 -11z"/>
<path d="M4360 6993 c0 -6 -3 -18 -6 -27 -3 -9 -1 -16 5 -16 17 0 25 30 12 43
-8 8 -11 8 -11 0z"/>
<path d="M4330 6980 c0 -5 5 -10 10 -10 6 0 10 5 10 10 0 6 -4 10 -10 10 -5 0
-10 -4 -10 -10z"/>
<path d="M4530 6980 c0 -5 5 -10 11 -10 5 0 7 5 4 10 -3 6 -8 10 -11 10 -2 0
-4 -4 -4 -10z"/>
<path d="M4610 6960 c0 -6 7 -10 15 -10 8 0 15 2 15 4 0 2 -7 6 -15 10 -8 3
-15 1 -15 -4z"/>
<path d="M3586 6917 c3 -10 9 -15 12 -12 3 3 0 11 -7 18 -10 9 -11 8 -5 -6z"/>
<path d="M4180 6921 c0 -6 5 -13 10 -16 6 -3 10 1 10 9 0 9 -4 16 -10 16 -5 0
-10 -4 -10 -9z"/>
<path d="M4390 6886 c0 -34 -14 -49 -22 -24 -5 14 -28 2 -28 -16 0 -7 9 -22
20 -34 23 -24 26 -48 8 -56 -9 -3 -7 -9 6 -20 14 -11 22 -13 27 -5 3 6 10 11
15 11 10 1 6 40 -5 48 -9 7 -9 90 0 90 12 0 3 34 -9 38 -8 2 -12 -9 -12 -32z
m0 -68 c0 -13 -23 -5 -28 10 -2 7 2 10 12 6 9 -3 16 -11 16 -16z"/>
<path d="M3640 6861 c0 -25 6 -27 13 -6 4 8 2 17 -3 20 -6 4 -10 -3 -10 -14z"/>
<path d="M3585 6861 c-3 -5 0 -13 5 -16 6 -4 15 -18 20 -31 9 -24 30 -33 30
-14 0 6 -5 10 -11 10 -7 0 -9 10 -7 25 5 22 3 23 -10 13 -13 -11 -15 -10 -9 5
7 18 -7 24 -18 8z"/>
<path d="M3731 6849 c-1 -18 -19 -36 -41 -41 -22 -5 -65 -46 -56 -55 4 -4 11
-1 15 6 5 7 14 11 20 7 7 -5 9 -1 5 8 -6 15 5 20 33 17 16 -2 35 36 30 57 -4
15 -5 15 -6 1z"/>
<path d="M3836 6845 c-3 -8 -1 -15 4 -15 6 0 10 7 10 15 0 8 -2 15 -4 15 -2 0
-6 -7 -10 -15z"/>
<path d="M4460 6849 c0 -5 5 -7 10 -4 6 3 10 8 10 11 0 2 -4 4 -10 4 -5 0 -10
-5 -10 -11z"/>
<path d="M3797 6844 c-4 -4 -7 -14 -7 -23 0 -11 3 -12 11 -4 6 6 10 16 7 23
-2 6 -7 8 -11 4z"/>
<path d="M4430 6829 c0 -5 5 -7 10 -4 6 3 10 8 10 11 0 2 -4 4 -10 4 -5 0 -10
-5 -10 -11z"/>
<path d="M4191 6814 c0 -11 3 -14 6 -6 3 7 2 16 -1 19 -3 4 -6 -2 -5 -13z"/>
<path d="M3773 6806 c5 -12 3 -16 -5 -13 -7 2 -23 -5 -36 -17 -20 -17 -24 -18
-32 -6 -8 12 -10 10 -10 -9 0 -17 -4 -22 -16 -17 -12 5 -14 1 -8 -17 10 -32
12 -33 35 -8 12 13 24 19 28 14 12 -18 31 -7 50 27 17 32 17 37 3 50 -14 13
-15 12 -9 -4z m-13 -36 c0 -5 -2 -10 -4 -10 -3 0 -8 5 -11 10 -3 6 -1 10 4 10
6 0 11 -4 11 -10z"/>
<path d="M3828 6770 c-5 -35 -5 -35 22 -13 14 13 17 20 8 30 -17 20 -25 16
-30 -17z"/>
<path d="M4480 6755 c0 -8 2 -15 4 -15 2 0 6 7 10 15 3 8 1 15 -4 15 -6 0 -10
-7 -10 -15z"/>
<path d="M4531 6749 l-24 -9 23 -25 c26 -28 40 -32 40 -11 0 8 5 16 11 18 6 2
3 10 -8 20 -13 12 -24 13 -42 7z m29 -19 c0 -5 -2 -10 -4 -10 -3 0 -8 5 -11
10 -3 6 -1 10 4 10 6 0 11 -4 11 -10z"/>
<path d="M4450 6740 c0 -5 5 -10 10 -10 6 0 10 5 10 10 0 6 -4 10 -10 10 -5 0
-10 -4 -10 -10z"/>
<path d="M3586 6731 c-4 -6 -2 -11 3 -11 6 0 11 -7 11 -15 0 -8 -4 -15 -10
-15 -5 0 -10 -4 -10 -10 0 -5 9 -10 21 -10 18 0 20 4 14 28 -8 33 -21 47 -29
33z"/>
<path d="M4423 6711 c-16 -25 7 -36 34 -16 16 13 16 16 3 25 -21 13 -23 13
-37 -9z"/>
<path d="M3796 6704 c-10 -25 -1 -27 19 -4 15 17 16 20 3 20 -9 0 -19 -7 -22
-16z"/>
<path d="M3545 6689 c-4 -11 -4 -23 -2 -26 9 -8 27 7 27 22 0 23 -18 27 -25 4z"/>
<path d="M4270 6700 c0 -5 5 -10 11 -10 5 0 7 5 4 10 -3 6 -8 10 -11 10 -2 0
-4 -4 -4 -10z"/>
<path d="M4151 6656 c-25 -58 -25 -56 -5 -56 12 0 15 -6 10 -25 -5 -21 -3 -25
17 -25 31 0 38 9 26 31 -7 15 -6 19 6 19 20 0 19 6 -9 59 l-23 45 -22 -48z"/>
<path d="M4323 6693 c-7 -3 -13 -8 -13 -13 0 -10 24 -7 28 4 5 11 -1 14 -15 9z"/>
<path d="M3666 6678 c-14 -41 -15 -48 -6 -53 6 -4 10 2 10 12 1 17 1 17 14 1
16 -22 26 -23 26 -3 0 8 -4 15 -8 15 -5 0 -14 10 -19 23 -10 19 -12 20 -17 5z"/>
<path d="M3690 6682 c0 -11 43 -46 61 -50 10 -1 9 2 -3 11 -10 8 -18 19 -18
25 0 5 -7 13 -16 16 -21 8 -24 8 -24 -2z"/>
<path d="M3823 6683 c-20 -8 -15 -31 8 -38 26 -9 30 -5 22 23 -5 23 -9 24 -30
15z"/>
<path d="M3530 6600 c0 -5 5 -10 10 -10 6 0 10 5 10 10 0 6 -4 10 -10 10 -5 0
-10 -4 -10 -10z"/>
<path d="M3591 6574 c0 -11 3 -14 6 -6 3 7 2 16 -1 19 -3 4 -6 -2 -5 -13z"/>
<path d="M4282 6547 c-16 -46 -16 -47 18 -47 33 0 37 13 18 55 -15 33 -22 32
-36 -8z"/>
<path d="M4062 6467 c-17 -46 -16 -47 23 -47 19 0 35 2 35 5 0 10 -34 75 -40
75 -3 0 -11 -15 -18 -33z"/>
<path d="M3600 6440 c0 -5 4 -10 9 -10 6 0 13 5 16 10 3 6 -1 10 -9 10 -9 0
-16 -4 -16 -10z"/>
<path d="M3455 6390 c4 -6 11 -8 16 -5 14 9 11 15 -7 15 -8 0 -12 -5 -9 -10z"/>
<path d="M3596 6367 c3 -10 9 -15 12 -12 3 3 0 11 -7 18 -10 9 -11 8 -5 -6z"/>
<path d="M3647 6334 c3 -7 9 -14 14 -14 14 0 10 17 -5 23 -10 4 -13 1 -9 -9z"/>
<path d="M3620 6290 c0 -5 7 -10 15 -10 8 0 15 5 15 10 0 6 -7 10 -15 10 -8 0
-15 -4 -15 -10z"/>
<path d="M3722 6027 c-16 -18 -5 -49 16 -45 21 4 25 20 9 42 -11 15 -15 16
-25 3z"/>
<path d="M3700 5971 c0 -6 4 -13 10 -16 6 -3 7 1 4 9 -7 18 -14 21 -14 7z"/>
<path d="M3375 5950 c-8 -13 20 -24 41 -16 20 8 9 26 -16 26 -10 0 -22 -5 -25
-10z"/>
<path d="M3440 5930 c0 -5 18 -10 40 -10 22 0 40 5 40 10 0 6 -18 10 -40 10
-22 0 -40 -4 -40 -10z"/>
<path d="M3345 5919 c-4 -6 -5 -12 -2 -15 2 -3 7 2 10 11 7 17 1 20 -8 4z"/>
<path d="M3388 5909 c-26 -15 -22 -38 7 -45 30 -7 31 -7 39 26 3 14 3 20 0 13
-3 -7 -12 -9 -20 -6 -13 5 -13 7 -2 14 19 12 -3 10 -24 -2z"/>
<path d="M3607 5856 c-4 -9 -14 -16 -22 -16 -10 0 -15 -7 -13 -17 4 -24 27
-28 35 -6 3 10 10 20 14 23 4 3 4 11 0 19 -7 10 -9 9 -14 -3z"/>
<path d="M3640 5851 c-14 -27 -13 -31 9 -31 21 0 31 17 23 38 -6 18 -20 15
-32 -7z"/>
<path d="M3841 5854 c0 -11 3 -14 6 -6 3 7 2 16 -1 19 -3 4 -6 -2 -5 -13z"/>
<path d="M3870 5847 c0 -22 11 -27 31 -14 25 16 24 22 -6 25 -15 1 -25 -3 -25
-11z"/>
<path d="M4165 5750 c-3 -5 -1 -10 4 -10 6 0 11 5 11 10 0 6 -2 10 -4 10 -3 0
-8 -4 -11 -10z"/>
<path d="M4008 5490 c2 -16 6 -30 8 -30 2 0 4 14 4 30 0 17 -4 30 -8 30 -5 0
-7 -13 -4 -30z"/>
<path d="M6175 4551 c-3 -5 -1 -12 5 -16 5 -3 10 1 10 9 0 18 -6 21 -15 7z"/>
<path d="M6125 4470 c-3 -5 -1 -10 4 -10 6 0 11 5 11 10 0 6 -2 10 -4 10 -3 0
-8 -4 -11 -10z"/>
<path d="M6130 4441 c0 -5 -2 -16 -6 -24 -3 -10 2 -14 22 -13 15 1 29 8 31 16
4 13 3 13 -6 0 -9 -13 -12 -12 -17 8 -6 21 -24 31 -24 13z"/>
<path d="M8635 2600 c3 -5 10 -10 16 -10 5 0 9 5 9 10 0 6 -7 10 -16 10 -8 0
-12 -4 -9 -10z"/>
<path d="M14535 2540 c3 -5 8 -10 11 -10 2 0 4 5 4 10 0 6 -5 10 -11 10 -5 0
-7 -4 -4 -10z"/>
<path d="M13750 2040 c0 -5 5 -10 10 -10 6 0 10 5 10 10 0 6 -4 10 -10 10 -5
0 -10 -4 -10 -10z"/>
<path d="M13770 1990 c0 -5 5 -10 10 -10 6 0 10 5 10 10 0 6 -4 10 -10 10 -5
0 -10 -4 -10 -10z"/>
<path d="M13580 1980 c0 -5 5 -10 10 -10 6 0 10 5 10 10 0 6 -4 10 -10 10 -5
0 -10 -4 -10 -10z"/>
<path d="M15905 2850 c-11 -17 5 -32 21 -19 8 6 14 15 14 20 0 12 -27 11 -35
-1z"/>
<path d="M16317 2705 c-8 -18 11 -31 25 -17 11 11 3 32 -12 32 -4 0 -10 -7
-13 -15z"/>
<path d="M17596 3400 c-3 -8 -28 -132 -56 -275 -29 -143 -53 -261 -55 -263 -3
-3 -90 193 -107 241 -6 15 -13 26 -16 23 -9 -10 -28 -281 -20 -287 5 -3 77 -5
162 -5 207 1 202 -4 126 146 -33 64 -60 119 -60 122 0 2 27 24 60 48 33 24 60
47 60 51 0 22 -89 212 -94 199z"/>
<path d="M17170 3204 c0 -5 -14 -81 -30 -169 -42 -224 -48 -203 62 -203 50 0
97 2 103 5 9 3 -9 61 -56 185 -63 169 -79 204 -79 182z"/>
<path d="M16926 2889 c-7 -46 -5 -51 26 -56 45 -7 49 4 21 52 -16 25 -31 45
-34 45 -4 0 -9 -19 -13 -41z"/>
<path d="M3408 2703 c5 -21 7 -23 10 -9 2 10 0 22 -6 28 -6 6 -7 0 -4 -19z"/>
<path d="M16870 2689 c0 -5 5 -7 10 -4 6 3 10 8 10 11 0 2 -4 4 -10 4 -5 0
-10 -5 -10 -11z"/>
<path d="M2970 2014 c0 -5 7 -19 15 -30 8 -10 15 -14 15 -8 0 5 -7 19 -15 30
-8 10 -15 14 -15 8z"/>
<path d="M55 1132 c-19 -14 -37 -42 -27 -42 5 0 17 11 26 25 17 26 17 29 1 17z"/>
<path d="M12 1074 c10 -10 20 -15 24 -12 3 4 -5 12 -18 18 -22 12 -22 12 -6
-6z"/>
<path d="M356 1065 c-3 -8 -1 -15 4 -15 6 0 10 7 10 15 0 8 -2 15 -4 15 -2 0
-6 -7 -10 -15z"/>
<path d="M495 1030 c3 -5 8 -10 11 -10 2 0 4 5 4 10 0 6 -5 10 -11 10 -5 0 -7
-4 -4 -10z"/>
<path d="M545 1020 c-3 -5 -2 -10 4 -10 5 0 13 5 16 10 3 6 2 10 -4 10 -5 0
-13 -4 -16 -10z"/>
<path d="M1015 930 c-3 -5 1 -10 9 -10 9 0 16 5 16 10 0 6 -4 10 -9 10 -6 0
-13 -4 -16 -10z"/>
<path d="M875 920 c3 -5 8 -10 11 -10 2 0 4 5 4 10 0 6 -5 10 -11 10 -5 0 -7
-4 -4 -10z"/>
<path d="M928 913 c6 -2 9 -10 6 -15 -4 -7 -2 -8 4 -4 18 11 14 26 -5 25 -11
0 -13 -3 -5 -6z"/>
<path d="M1120 905 c0 -15 18 -40 24 -34 3 3 -1 14 -9 25 -8 10 -14 15 -15 9z"/>
<path d="M1076 875 c4 -8 8 -15 10 -15 2 0 4 7 4 15 0 8 -4 15 -10 15 -5 0 -7
-7 -4 -15z"/>
<path d="M985 821 c-3 -5 -1 -12 5 -16 5 -3 10 1 10 9 0 18 -6 21 -15 7z"/>
<path d="M1265 810 c3 -5 13 -10 21 -10 8 0 12 5 9 10 -3 6 -13 10 -21 10 -8
0 -12 -4 -9 -10z"/>
<path d="M1151 774 c0 -11 3 -14 6 -6 3 7 2 16 -1 19 -3 4 -6 -2 -5 -13z"/>
<path d="M1482 744 c-7 -8 -8 -14 -3 -14 10 0 25 19 20 25 -2 1 -10 -3 -17
-11z"/>
<path d="M1240 741 c0 -5 5 -13 10 -16 6 -3 10 -2 10 4 0 5 -4 13 -10 16 -5 3
-10 2 -10 -4z"/>
<path d="M1500 686 c0 -23 16 -27 17 -5 1 10 -2 19 -8 19 -5 0 -9 -6 -9 -14z"/>
<path d="M1613 665 c-6 -7 -8 -18 -3 -26 7 -11 10 -10 15 3 10 24 2 38 -12 23z"/>
<path d="M13770 651 c0 -17 45 -21 60 -5 14 15 13 15 -7 5 -14 -7 -24 -8 -28
-1 -8 12 -25 13 -25 1z"/>
<path d="M14215 650 c-3 -5 1 -10 9 -10 8 0 18 5 21 10 3 6 -1 10 -9 10 -8 0
-18 -4 -21 -10z"/>
<path d="M1730 632 c0 -16 6 -20 25 -18 31 3 39 11 30 26 -6 9 -10 9 -15 -1
-7 -10 -11 -10 -24 0 -14 12 -16 10 -16 -7z"/>
<path d="M13514 639 c-3 -6 -2 -15 3 -20 5 -5 9 -1 9 11 0 23 -2 24 -12 9z"/>
<path d="M13486 607 c3 -10 9 -15 12 -12 3 3 0 11 -7 18 -10 9 -11 8 -5 -6z"/>
<path d="M15087 613 c-4 -3 -7 -11 -7 -17 0 -6 5 -5 12 2 6 6 9 14 7 17 -3 3
-9 2 -12 -2z"/>
<path d="M1810 600 c0 -5 5 -10 11 -10 5 0 7 5 4 10 -3 6 -8 10 -11 10 -2 0
-4 -4 -4 -10z"/>
<path d="M13201 594 c0 -11 3 -14 6 -6 3 7 2 16 -1 19 -3 4 -6 -2 -5 -13z"/>
<path d="M14620 560 c0 -5 5 -10 10 -10 6 0 10 5 10 10 0 6 -4 10 -10 10 -5 0
-10 -4 -10 -10z"/>
<path d="M15560 551 c0 -5 5 -13 10 -16 6 -3 10 -2 10 4 0 5 -4 13 -10 16 -5
3 -10 2 -10 -4z"/>
<path d="M12782 534 c9 -9 21 -13 27 -10 20 13 11 26 -16 26 -25 0 -26 -1 -11
-16z"/>
<path d="M12865 539 c-4 -6 -5 -12 -2 -15 2 -3 7 2 10 11 7 17 1 20 -8 4z"/>
<path d="M12990 540 c0 -5 5 -10 11 -10 5 0 7 5 4 10 -3 6 -8 10 -11 10 -2 0
-4 -4 -4 -10z"/>
<path d="M1780 530 c0 -5 5 -10 10 -10 6 0 10 5 10 10 0 6 -4 10 -10 10 -5 0
-10 -4 -10 -10z"/>
<path d="M12690 500 c0 -5 5 -10 10 -10 6 0 10 5 10 10 0 6 -4 10 -10 10 -5 0
-10 -4 -10 -10z"/>
<path d="M12745 490 c-3 -5 -1 -10 4 -10 6 0 11 5 11 10 0 6 -2 10 -4 10 -3 0
-8 -4 -11 -10z"/>
<path d="M15805 470 c2 -27 15 -38 15 -12 0 11 -4 23 -8 26 -5 3 -8 -4 -7 -14z"/>
<path d="M15930 472 c0 -20 3 -21 20 -12 11 6 20 13 20 16 0 3 -5 2 -11 -2 -6
-3 -15 0 -20 7 -6 10 -9 8 -9 -9z"/>
<path d="M2085 463 c2 -10 4 -20 4 -22 1 -2 8 2 16 9 16 14 11 30 -10 30 -7 0
-12 -8 -10 -17z"/>
<path d="M1865 460 c3 -5 8 -10 11 -10 2 0 4 5 4 10 0 6 -5 10 -11 10 -5 0 -7
-4 -4 -10z"/>
<path d="M2135 460 c3 -5 11 -10 16 -10 6 0 7 5 4 10 -3 6 -11 10 -16 10 -6 0
-7 -4 -4 -10z"/>
<path d="M16042 458 c5 -15 28 -23 28 -10 0 5 -7 13 -16 16 -10 4 -14 1 -12
-6z"/>
<path d="M12370 441 c0 -6 5 -13 10 -16 6 -3 10 1 10 9 0 9 -4 16 -10 16 -5 0
-10 -4 -10 -9z"/>
<path d="M2230 415 c0 -8 4 -15 9 -15 5 0 11 7 15 15 3 9 0 15 -9 15 -8 0 -15
-7 -15 -15z"/>
<path d="M7125 420 c3 -5 8 -10 11 -10 2 0 4 5 4 10 0 6 -5 10 -11 10 -5 0 -7
-4 -4 -10z"/>
<path d="M12150 415 c-7 -8 -11 -16 -9 -16 22 -7 59 -6 59 2 0 5 11 9 25 9 14
0 25 -4 25 -10 0 -5 6 -7 14 -4 8 3 13 11 10 19 -8 19 -108 19 -124 0z"/>
<path d="M2321 394 c0 -11 3 -14 6 -6 3 7 2 16 -1 19 -3 4 -6 -2 -5 -13z"/>
<path d="M6907 393 c-10 -9 -9 -23 2 -23 5 0 11 7 15 15 5 15 -5 20 -17 8z"/>
<path d="M7710 379 c0 -6 -6 -9 -13 -6 -8 3 -20 1 -28 -4 -24 -15 8 -28 37
-15 24 11 33 36 14 36 -5 0 -10 -5 -10 -11z"/>
<path d="M2124 359 c0 -20 11 -25 20 -10 3 5 0 13 -7 19 -10 8 -13 6 -13 -9z"/>
<path d="M6850 369 c0 -5 5 -7 10 -4 6 3 10 8 10 11 0 2 -4 4 -10 4 -5 0 -10
-5 -10 -11z"/>
<path d="M7150 370 c0 -5 5 -10 10 -10 6 0 10 5 10 10 0 6 -4 10 -10 10 -5 0
-10 -4 -10 -10z"/>
<path d="M2207 363 c-4 -3 -7 -11 -7 -17 0 -6 5 -5 12 2 6 6 9 14 7 17 -3 3
-9 2 -12 -2z"/>
<path d="M6262 349 c2 -6 8 -10 13 -10 5 0 11 4 13 10 2 6 -4 11 -13 11 -9 0
-15 -5 -13 -11z"/>
<path d="M6355 350 c-3 -5 -1 -10 4 -10 6 0 11 5 11 10 0 6 -2 10 -4 10 -3 0
-8 -4 -11 -10z"/>
<path d="M7860 351 c0 -5 5 -13 10 -16 6 -3 10 -2 10 4 0 5 -4 13 -10 16 -5 3
-10 2 -10 -4z"/>
<path d="M11912 348 c-5 -7 -12 -22 -16 -33 -5 -17 -1 -20 32 -22 30 -2 33 0
16 7 -32 13 -38 30 -18 45 11 8 14 15 8 15 -6 0 -16 -6 -22 -12z"/>
<path d="M5850 343 c0 -14 19 -38 25 -32 8 8 -5 39 -16 39 -5 0 -9 -3 -9 -7z"/>
<path d="M5966 335 c-19 -15 -19 -15 2 -15 12 0 26 -9 32 -20 6 -11 18 -20 26
-20 11 0 8 6 -9 23 -13 12 -22 28 -20 35 6 16 -7 15 -31 -3z"/>
<path d="M6740 340 c-9 -6 -10 -10 -3 -10 6 0 15 5 18 10 8 12 4 12 -15 0z"/>
<path d="M7335 340 c3 -5 8 -10 11 -10 2 0 4 5 4 10 0 6 -5 10 -11 10 -5 0 -7
-4 -4 -10z"/>
<path d="M7620 330 c-13 -8 -12 -10 3 -10 9 0 17 5 17 10 0 12 -1 12 -20 0z"/>
<path d="M2400 320 c0 -5 7 -10 16 -10 8 0 12 5 9 10 -3 6 -10 10 -16 10 -5 0
-9 -4 -9 -10z"/>
<path d="M6650 320 c0 -5 5 -10 11 -10 5 0 7 5 4 10 -3 6 -8 10 -11 10 -2 0
-4 -4 -4 -10z"/>
<path d="M6395 310 c-3 -5 1 -10 10 -10 9 0 13 5 10 10 -3 6 -8 10 -10 10 -2
0 -7 -4 -10 -10z"/>
<path d="M12040 310 c0 -5 5 -10 11 -10 5 0 7 5 4 10 -3 6 -8 10 -11 10 -2 0
-4 -4 -4 -10z"/>
<path d="M5807 303 c-13 -12 -7 -23 11 -23 10 0 23 -5 30 -12 7 -7 12 -8 12
-2 0 8 -35 44 -43 44 -2 0 -7 -3 -10 -7z"/>
<path d="M11796 292 c-3 -5 1 -15 9 -22 16 -14 20 -3 6 19 -5 8 -11 9 -15 3z"/>
<path d="M8195 280 c3 -5 8 -10 11 -10 2 0 4 5 4 10 0 6 -5 10 -11 10 -5 0 -7
-4 -4 -10z"/>
<path d="M11848 283 c7 -3 16 -2 19 1 4 3 -2 6 -13 5 -11 0 -14 -3 -6 -6z"/>
<path d="M7850 265 c0 -8 4 -15 10 -15 5 0 7 7 4 15 -4 8 -8 15 -10 15 -2 0
-4 -7 -4 -15z"/>
<path d="M8120 270 c0 -5 5 -10 10 -10 6 0 10 5 10 10 0 6 -4 10 -10 10 -5 0
-10 -4 -10 -10z"/>
<path d="M11717 274 c-11 -11 21 -34 37 -28 20 8 20 20 0 28 -20 8 -29 8 -37
0z"/>
<path d="M2160 261 c0 -6 5 -13 10 -16 6 -3 10 1 10 9 0 9 -4 16 -10 16 -5 0
-10 -4 -10 -9z"/>
<path d="M5519 254 c-10 -13 -10 -17 1 -24 8 -5 19 -6 24 -3 6 4 5 8 -2 11 -7
2 -12 8 -12 13 0 6 5 7 10 4 6 -3 10 -1 10 4 0 16 -16 13 -31 -5z"/>
<path d="M8225 260 c3 -5 10 -10 16 -10 5 0 9 5 9 10 0 6 -7 10 -16 10 -8 0
-12 -4 -9 -10z"/>
<path d="M5708 253 c7 -3 16 -2 19 1 4 3 -2 6 -13 5 -11 0 -14 -3 -6 -6z"/>
<path d="M16496 252 c-3 -6 -1 -14 5 -17 14 -9 20 -2 10 14 -6 8 -11 9 -15 3z"/>
<path d="M6240 240 c0 -5 5 -10 10 -10 6 0 10 5 10 10 0 6 -4 10 -10 10 -5 0
-10 -4 -10 -10z"/>
<path d="M5337 216 c-4 -10 -5 -21 -2 -24 9 -9 17 6 13 25 -3 17 -4 17 -11 -1z"/>
<path d="M2602 200 c-12 -10 -18 -21 -13 -24 5 -3 12 1 15 10 4 10 14 14 25
11 14 -3 18 -1 14 9 -7 18 -13 17 -41 -6z"/>
<path d="M5250 200 c0 -5 5 -10 11 -10 5 0 7 5 4 10 -3 6 -8 10 -11 10 -2 0
-4 -4 -4 -10z"/>
<path d="M16855 200 c-3 -5 -2 -10 4 -10 5 0 13 5 16 10 3 6 2 10 -4 10 -5 0
-13 -4 -16 -10z"/>
<path d="M16960 200 c0 -5 9 -10 21 -10 11 0 17 5 14 10 -3 6 -13 10 -21 10
-8 0 -14 -4 -14 -10z"/>
<path d="M11555 191 c-9 -16 9 -20 23 -5 10 12 10 14 -2 14 -8 0 -17 -4 -21
-9z"/>
<path d="M11729 183 c-13 -16 -12 -17 4 -4 16 13 21 21 13 21 -2 0 -10 -8 -17
-17z"/>
<path d="M5577 175 c-8 -20 -4 -29 11 -24 5 2 6 13 2 23 -6 19 -7 19 -13 1z"/>
<path d="M5675 180 c-3 -5 -1 -10 4 -10 6 0 11 5 11 10 0 6 -2 10 -4 10 -3 0
-8 -4 -11 -10z"/>
<path d="M8615 170 c-3 -5 -1 -10 4 -10 6 0 11 5 11 10 0 6 -2 10 -4 10 -3 0
-8 -4 -11 -10z"/>
<path d="M11430 169 c0 -5 5 -7 10 -4 6 3 10 8 10 11 0 2 -4 4 -10 4 -5 0 -10
-5 -10 -11z"/>
<path d="M11680 170 c0 -5 5 -10 11 -10 5 0 7 5 4 10 -3 6 -8 10 -11 10 -2 0
-4 -4 -4 -10z"/>
<path d="M16860 150 c-9 -6 -10 -10 -3 -10 6 0 15 5 18 10 8 12 4 12 -15 0z"/>
<path d="M5052 138 c-7 -7 -12 -19 -12 -27 1 -13 2 -13 11 2 8 14 14 15 32 6
22 -12 22 -12 3 10 -22 25 -19 24 -34 9z"/>
<path d="M5355 140 c-3 -5 -1 -10 4 -10 6 0 11 5 11 10 0 6 -2 10 -4 10 -3 0
-8 -4 -11 -10z"/>
<path d="M11345 141 c-3 -5 -1 -12 4 -15 5 -3 11 1 15 9 6 16 -9 21 -19 6z"/>
<path d="M11585 140 c-3 -5 1 -10 9 -10 9 0 16 5 16 10 0 6 -4 10 -9 10 -6 0
-13 -4 -16 -10z"/>
<path d="M16230 139 c0 -5 5 -7 10 -4 6 3 10 8 10 11 0 2 -4 4 -10 4 -5 0 -10
-5 -10 -11z"/>
<path d="M2617 126 c-4 -10 -1 -13 8 -9 8 3 12 9 9 14 -7 12 -11 11 -17 -5z"/>
<path d="M17060 131 c0 -18 18 -21 30 -6 10 13 9 15 -9 15 -11 0 -21 -4 -21
-9z"/>
<path d="M4959 102 c16 -30 33 -38 22 -11 -4 13 -14 25 -20 27 -10 3 -10 0 -2
-16z"/>
<path d="M8890 106 c0 -9 5 -16 10 -16 6 0 10 4 10 9 0 6 -4 13 -10 16 -5 3
-10 -1 -10 -9z"/>
<path d="M11845 110 c3 -5 8 -10 11 -10 2 0 4 5 4 10 0 6 -5 10 -11 10 -5 0
-7 -4 -4 -10z"/>
<path d="M9035 90 c3 -5 8 -10 11 -10 2 0 4 5 4 10 0 6 -5 10 -11 10 -5 0 -7
-4 -4 -10z"/>
<path d="M2645 80 c3 -5 8 -10 11 -10 2 0 4 5 4 10 0 6 -5 10 -11 10 -5 0 -7
-4 -4 -10z"/>
<path d="M4827 69 c-10 -11 -22 -17 -27 -14 -6 4 -10 1 -10 -4 0 -18 17 -13
47 14 15 13 24 24 18 24 -5 0 -18 -9 -28 -20z"/>
<path d="M5165 80 c3 -5 8 -10 11 -10 2 0 4 5 4 10 0 6 -5 10 -11 10 -5 0 -7
-4 -4 -10z"/>
<path d="M9180 80 c0 -5 5 -10 11 -10 5 0 7 5 4 10 -3 6 -8 10 -11 10 -2 0 -4
-4 -4 -10z"/>
<path d="M11270 79 c0 -5 5 -7 10 -4 6 3 10 8 10 11 0 2 -4 4 -10 4 -5 0 -10
-5 -10 -11z"/>
<path d="M4927 56 c3 -15 10 -29 15 -32 6 -4 7 2 3 17 -10 35 -23 45 -18 15z"/>
<path d="M9207 63 c-12 -11 -8 -23 8 -23 8 0 15 7 15 15 0 16 -12 20 -23 8z"/>
<path d="M11395 50 c3 -5 11 -10 16 -10 6 0 7 5 4 10 -3 6 -11 10 -16 10 -6 0
-7 -4 -4 -10z"/>
<path d="M9401 34 c0 -11 3 -14 6 -6 3 7 2 16 -1 19 -3 4 -6 -2 -5 -13z"/>
<path d="M11055 41 c-3 -5 6 -8 20 -7 35 4 44 16 12 16 -14 0 -28 -4 -32 -9z"/>
<path d="M17520 30 c-8 -5 -11 -12 -7 -16 4 -4 13 -2 19 4 15 15 7 24 -12 12z"/>
<path d="M2640 19 c0 -5 5 -7 10 -4 6 3 10 8 10 11 0 2 -4 4 -10 4 -5 0 -10
-5 -10 -11z"/>
<path d="M11028 3 c7 -3 16 -2 19 1 4 3 -2 6 -13 5 -11 0 -14 -3 -6 -6z"/>
</g>
</svg>
